<svg width="1260" height="270" xmlns="http://www.w3.org/2000/svg" xmlns:xlink="http://www.w3.org/1999/xlink" xml:space="preserve" overflow="hidden"><g transform="translate(-10 -12)"><path d="M785.826-263.408C785.826-263.408 761.436-263.408 761.436-263.408 756.558-263.408 751.68-258.53 751.68-253.652 751.68-253.652 751.68-243.896 751.68-243.896 751.68-239.018 756.558-234.141 761.436-234.141 761.436-234.141 785.826-234.141 785.826-234.141 790.704-234.141 795.582-239.018 795.582-243.896 795.582-243.896 795.582-253.652 795.582-253.652 795.582-258.53 790.704-263.408 785.826-263.408" stroke="#000000" stroke-width="0.812988" fill="#F4B183" transform="matrix(1.0021 0 0 1 13.2588 278.704)"/><text font-family="Arial,Arial_MSFontService,sans-serif" font-weight="400" font-size="14" transform="matrix(0.814696 0 0 0.812988 785.343 33)">?</text><path d="M824.744-190.239C824.744-182.157 762.549-175.605 685.828-175.605 609.108-175.605 546.913-182.157 546.913-190.239 546.913-198.321 609.108-204.873 685.828-204.873 762.549-204.873 824.744-198.321 824.744-190.239Z" stroke="#000000" stroke-width="0.812988" fill="#D3E6EF" transform="matrix(1.0021 0 0 1 13.2588 278.704)"/><text font-family="Arial,Arial_MSFontService,sans-serif" font-weight="400" font-size="14" transform="matrix(0.814696 0 0 0.812988 610.813 91)">target</text><text font-family="Arial,Arial_MSFontService,sans-serif" font-weight="400" font-size="14" transform="matrix(0.814696 0 0 0.812988 639.979 91)">: </text><text font-family="Arial,Arial_MSFontService,sans-serif" font-weight="400" font-size="14" transform="matrix(0.814696 0 0 0.812988 646.317 91)">is</text><text font-family="Arial,Arial_MSFontService,sans-serif" font-weight="400" font-size="14" transform="matrix(0.814696 0 0 0.812988 654.554 91)">_</text><text font-family="Arial,Arial_MSFontService,sans-serif" font-weight="400" font-size="14" transform="matrix(0.814696 0 0 0.812988 660.897 91)">inserted</text><text font-family="Arial,Arial_MSFontService,sans-serif" font-weight="400" font-size="14" transform="matrix(0.814696 0 0 0.812988 701.475 91)">_</text><text font-family="Arial,Arial_MSFontService,sans-serif" font-weight="400" font-size="14" transform="matrix(0.814696 0 0 0.812988 707.818 91)">to</text><text font-family="Arial,Arial_MSFontService,sans-serif" font-weight="400" font-size="14" transform="matrix(0.814696 0 0 0.812988 717.33 91)">(</text><text font-family="Arial,Arial_MSFontService,sans-serif" font-weight="400" font-size="14" transform="matrix(0.814696 0 0 0.812988 721.128 91)">shaft</text><text font-family="Arial,Arial_MSFontService,sans-serif" font-weight="400" font-size="14" transform="matrix(0.814696 0 0 0.812988 745.856 91)">1</text><text font-family="Arial,Arial_MSFontService,sans-serif" font-weight="400" font-size="14" transform="matrix(0.814696 0 0 0.812988 752.199 91)">, </text><text font-family="Arial,Arial_MSFontService,sans-serif" font-weight="400" font-size="14" transform="matrix(0.814696 0 0 0.812988 758.537 91)">hole</text><text font-family="Arial,Arial_MSFontService,sans-serif" font-weight="400" font-size="14" transform="matrix(0.814696 0 0 0.812988 780.101 91)">1</text><text font-family="Arial,Arial_MSFontService,sans-serif" font-weight="400" font-size="14" transform="matrix(0.814696 0 0 0.812988 786.444 91)">)</text><path d="M752.152-234.043C740.689-226.612 726.445-217.377 714.096-209.377" stroke="#000000" stroke-width="0.812988" fill="none" transform="matrix(1.0021 0 0 1 13.2588 278.704)"/><path d="M715.454-206.865 707.08-204.832 712.356-211.637 715.454-206.865Z" stroke="#000000" stroke-width="0.812988" transform="matrix(1.0021 0 0 1 13.2588 278.704)"/><path d="M873.629-204.873C873.629-204.873 849.239-204.873 849.239-204.873 844.361-204.873 839.483-199.995 839.483-195.117 839.483-195.117 839.483-185.361 839.483-185.361 839.483-180.483 844.361-175.605 849.239-175.605 849.239-175.605 873.629-175.605 873.629-175.605 878.507-175.605 883.384-180.483 883.384-185.361 883.384-185.361 883.384-195.117 883.384-195.117 883.384-199.995 878.507-204.873 873.629-204.873" stroke="#000000" stroke-width="0.812988" fill="#94B5D7" transform="matrix(1.0021 0 0 1 13.2588 278.704)"/><text font-family="Arial,Arial_MSFontService,sans-serif" font-weight="400" font-size="14" transform="matrix(0.814696 0 0 0.812988 870.799 91)">→</text><path d="M795.11-234.043C806.484-226.669 820.597-217.515 832.882-209.556" stroke="#000000" stroke-width="0.812988" fill="none" transform="matrix(1.0021 0 0 1 13.2588 278.704)"/><path d="M834.597-211.84 839.873-205.027 831.5-207.06 834.597-211.84Z" stroke="#000000" stroke-width="0.812988" transform="matrix(1.0021 0 0 1 13.2588 278.704)"/><path d="M353.316-146.338C353.316-146.338 328.927-146.338 328.927-146.338 324.049-146.338 319.171-141.46 319.171-136.582 319.171-136.582 319.171-126.826 319.171-126.826 319.171-121.948 324.049-117.07 328.927-117.07 328.927-117.07 353.316-117.07 353.316-117.07 358.194-117.07 363.072-121.948 363.072-126.826 363.072-126.826 363.072-136.582 363.072-136.582 363.072-141.46 358.194-146.338 353.316-146.338" stroke="#000000" stroke-width="0.812988" fill="#F4B183" transform="matrix(1.0021 0 0 1 13.2588 278.704)"/><text font-family="Arial,Arial_MSFontService,sans-serif" font-weight="400" font-size="14" transform="matrix(0.814696 0 0 0.812988 351.925 150)">?</text><path d="M839.41-187.02C756.973-178.004 466.509-146.232 371.47-135.834" stroke="#000000" stroke-width="0.812988" fill="none" transform="matrix(1.0021 0 0 1 13.2588 278.704)"/><path d="M371.544-132.98 363.154-134.923 370.926-138.639 371.544-132.98Z" stroke="#000000" stroke-width="0.812988" transform="matrix(1.0021 0 0 1 13.2588 278.704)"/><path d="M768.753-146.338C768.753-146.338 744.364-146.338 744.364-146.338 739.486-146.338 734.608-141.46 734.608-136.582 734.608-136.582 734.608-126.826 734.608-126.826 734.608-121.948 739.486-117.07 744.364-117.07 744.364-117.07 768.753-117.07 768.753-117.07 773.631-117.07 778.509-121.948 778.509-126.826 778.509-126.826 778.509-136.582 778.509-136.582 778.509-141.46 773.631-146.338 768.753-146.338" stroke="#000000" stroke-width="0.812988" fill="#F4B183" transform="matrix(1.0021 0 0 1 13.2588 278.704)"/><text font-family="Arial,Arial_MSFontService,sans-serif" font-weight="400" font-size="14" transform="matrix(0.814696 0 0 0.812988 768.235 150)">?</text><path d="M839.443-177.5C823.857-169.036 802.769-157.59 785.761-148.362" stroke="#000000" stroke-width="0.812988" fill="none" transform="matrix(1.0021 0 0 1 13.2588 278.704)"/><path d="M787.013-145.809 778.509-144.427 784.298-150.809 787.013-145.809Z" stroke="#000000" stroke-width="0.812988" transform="matrix(1.0021 0 0 1 13.2588 278.704)"/><path d="M873.629-146.338C873.629-146.338 849.239-146.338 849.239-146.338 844.361-146.338 839.483-141.46 839.483-136.582 839.483-136.582 839.483-126.826 839.483-126.826 839.483-121.948 844.361-117.07 849.239-117.07 849.239-117.07 873.629-117.07 873.629-117.07 878.507-117.07 883.384-121.948 883.384-126.826 883.384-126.826 883.384-136.582 883.384-136.582 883.384-141.46 878.507-146.338 873.629-146.338" stroke="#000000" stroke-width="0.812988" fill="#F4B183" transform="matrix(1.0021 0 0 1 13.2588 278.704)"/><text font-family="Arial,Arial_MSFontService,sans-serif" font-weight="400" font-size="14" transform="matrix(0.814696 0 0 0.812988 873.33 150)">?</text><path d="M861.434-175.361C861.434-169.085 861.434-161.549 861.434-154.557" stroke="#000000" stroke-width="0.812988" fill="none" transform="matrix(1.0021 0 0 1 13.2588 278.704)"/><path d="M864.279-154.549 861.434-146.419 858.588-154.549 864.279-154.549Z" stroke="#000000" stroke-width="0.812988" transform="matrix(1.0021 0 0 1 13.2588 278.704)"/><text font-family="Arial,Arial_MSFontService,sans-serif" font-weight="400" font-size="25" transform="matrix(0.814696 0 0 0.812988 926.672 152)">...</text><path d="M1241.1-146.338C1241.1-146.338 966.309-146.338 966.309-146.338 961.431-146.338 956.553-141.46 956.553-136.582 956.553-136.582 956.553-126.826 956.553-126.826 956.553-121.948 961.431-117.07 966.309-117.07 966.309-117.07 1241.1-117.07 1241.1-117.07 1245.98-117.07 1250.85-121.948 1250.85-126.826 1250.85-126.826 1250.85-136.582 1250.85-136.582 1250.85-141.46 1245.98-146.338 1241.1-146.338" stroke="#000000" stroke-width="0.812988" fill="#FFEFBE" transform="matrix(1.0021 0 0 1 13.2588 278.704)"/><text font-family="Arial,Arial_MSFontService,sans-serif" font-weight="400" font-size="14" transform="matrix(0.814696 0 0 0.812988 996.594 150)">action</text><text font-family="Arial,Arial_MSFontService,sans-serif" font-weight="400" font-size="14" transform="matrix(0.814696 0 0 0.812988 1027.03 150)">: </text><text font-family="Arial,Arial_MSFontService,sans-serif" font-weight="400" font-size="14" transform="matrix(0.814696 0 0 0.812988 1033.37 150)">insert</text><text font-family="Arial,Arial_MSFontService,sans-serif" font-weight="400" font-size="14" transform="matrix(0.814696 0 0 0.812988 1061.26 150)">(</text><text font-family="Arial,Arial_MSFontService,sans-serif" font-weight="400" font-size="14" transform="matrix(0.814696 0 0 0.812988 1065.06 150)">hand</text><text font-family="Arial,Arial_MSFontService,sans-serif" font-weight="400" font-size="14" transform="matrix(0.814696 0 0 0.812988 1090.43 150)">, </text><text font-family="Arial,Arial_MSFontService,sans-serif" font-weight="400" font-size="14" transform="matrix(0.814696 0 0 0.812988 1096.77 150)">defaultgripper</text><text font-family="Arial,Arial_MSFontService,sans-serif" font-weight="400" font-size="14" transform="matrix(0.814696 0 0 0.812988 1166.52 150)">, </text><text font-family="Arial,Arial_MSFontService,sans-serif" font-weight="400" font-size="14" transform="matrix(0.814696 0 0 0.812988 1172.85 150)">shaft</text><text font-family="Arial,Arial_MSFontService,sans-serif" font-weight="400" font-size="14" transform="matrix(0.814696 0 0 0.812988 1197.58 150)">1</text><text font-family="Arial,Arial_MSFontService,sans-serif" font-weight="400" font-size="14" transform="matrix(0.814696 0 0 0.812988 1203.92 150)">, </text><text font-family="Arial,Arial_MSFontService,sans-serif" font-weight="400" font-size="14" transform="matrix(0.814696 0 0 0.812988 1210.26 150)">hole</text><text font-family="Arial,Arial_MSFontService,sans-serif" font-weight="400" font-size="14" transform="matrix(0.814696 0 0 0.812988 1231.83 150)">1</text><text font-family="Arial,Arial_MSFontService,sans-serif" font-weight="400" font-size="14" transform="matrix(0.814696 0 0 0.812988 1238.17 150)">)</text><path d="M883.571-184.223C917.945-176.15 985.52-160.281 1036.78-148.24" stroke="#000000" stroke-width="0.812988" fill="none" transform="matrix(1.0021 0 0 1 13.2588 278.704)"/><path d="M1037.59-150.972 1044.85-146.338 1036.29-145.427 1037.59-150.972Z" stroke="#000000" stroke-width="0.812988" transform="matrix(1.0021 0 0 1 13.2588 278.704)"/><path d="M236.791-73.1689C236.791-65.0869 183.769-58.5351 118.363-58.5351 52.957-58.5351-0.0650296-65.0869-0.0650296-73.1689-0.0650296-81.2509 52.957-87.8027 118.363-87.8027 183.769-87.8027 236.791-81.2509 236.791-73.1689Z" stroke="#000000" stroke-width="0.812988" fill="#D3E6EF" transform="matrix(1.0021 0 0 1 13.2588 278.704)"/><text font-family="Arial,Arial_MSFontService,sans-serif" font-weight="400" font-size="14" transform="matrix(0.814696 0 0 0.812988 55.4719 209)">target</text><text font-family="Arial,Arial_MSFontService,sans-serif" font-weight="400" font-size="14" transform="matrix(0.814696 0 0 0.812988 84.6379 209)">: </text><text font-family="Arial,Arial_MSFontService,sans-serif" font-weight="400" font-size="14" transform="matrix(0.814696 0 0 0.812988 90.9756 209)">pose</text><text font-family="Arial,Arial_MSFontService,sans-serif" font-weight="400" font-size="14" transform="matrix(0.814696 0 0 0.812988 115.708 209)">_</text><text font-family="Arial,Arial_MSFontService,sans-serif" font-weight="400" font-size="14" transform="matrix(0.814696 0 0 0.812988 122.052 209)">is</text><text font-family="Arial,Arial_MSFontService,sans-serif" font-weight="400" font-size="14" transform="matrix(0.814696 0 0 0.812988 130.289 209)">_</text><text font-family="Arial,Arial_MSFontService,sans-serif" font-weight="400" font-size="14" transform="matrix(0.814696 0 0 0.812988 136.632 209)">known</text><text font-family="Arial,Arial_MSFontService,sans-serif" font-weight="400" font-size="14" transform="matrix(0.814696 0 0 0.812988 169.602 209)">(</text><text font-family="Arial,Arial_MSFontService,sans-serif" font-weight="400" font-size="14" transform="matrix(0.814696 0 0 0.812988 173.4 209)">shaft</text><text font-family="Arial,Arial_MSFontService,sans-serif" font-weight="400" font-size="14" transform="matrix(0.814696 0 0 0.812988 198.127 209)">1</text><text font-family="Arial,Arial_MSFontService,sans-serif" font-weight="400" font-size="14" transform="matrix(0.814696 0 0 0.812988 204.471 209)">)</text><path d="M318.943-125.225C285.757-116.745 222.084-100.477 175.345-88.5425" stroke="#000000" stroke-width="0.812988" fill="none" transform="matrix(1.0021 0 0 1 13.2588 278.704)"/><path d="M175.996-85.7702 167.41-86.51 174.589-91.2823 175.996-85.7702Z" stroke="#000000" stroke-width="0.812988" transform="matrix(1.0021 0 0 1 13.2588 278.704)"/><path d="M421.201-87.8027C421.201-87.8027 261.042-87.8027 261.042-87.8027 256.164-87.8027 251.286-82.9248 251.286-78.0468 251.286-78.0468 251.286-68.291 251.286-68.291 251.286-63.4131 256.164-58.5351 261.042-58.5351 261.042-58.5351 421.201-58.5351 421.201-58.5351 426.079-58.5351 430.957-63.4131 430.957-68.291 430.957-68.291 430.957-78.0468 430.957-78.0468 430.957-82.9248 426.079-87.8027 421.201-87.8027" stroke="#000000" stroke-width="0.812988" fill="#FFEFBE" transform="matrix(1.0021 0 0 1 13.2588 278.704)"/><text font-family="Arial,Arial_MSFontService,sans-serif" font-weight="400" font-size="14" transform="matrix(0.814696 0 0 0.812988 280.286 209)">action</text><text font-family="Arial,Arial_MSFontService,sans-serif" font-weight="400" font-size="14" transform="matrix(0.814696 0 0 0.812988 310.721 209)">: </text><text font-family="Arial,Arial_MSFontService,sans-serif" font-weight="400" font-size="14" transform="matrix(0.814696 0 0 0.812988 317.059 209)">estimate</text><text font-family="Arial,Arial_MSFontService,sans-serif" font-weight="400" font-size="14" transform="matrix(0.814696 0 0 0.812988 360.165 209)">_</text><text font-family="Arial,Arial_MSFontService,sans-serif" font-weight="400" font-size="14" transform="matrix(0.814696 0 0 0.812988 366.508 209)">pose</text><text font-family="Arial,Arial_MSFontService,sans-serif" font-weight="400" font-size="14" transform="matrix(0.814696 0 0 0.812988 391.241 209)">(</text><text font-family="Arial,Arial_MSFontService,sans-serif" font-weight="400" font-size="14" transform="matrix(0.814696 0 0 0.812988 395.039 209)">shaft</text><text font-family="Arial,Arial_MSFontService,sans-serif" font-weight="400" font-size="14" transform="matrix(0.814696 0 0 0.812988 419.767 209)">1</text><text font-family="Arial,Arial_MSFontService,sans-serif" font-weight="400" font-size="14" transform="matrix(0.814696 0 0 0.812988 426.11 209)">)</text><path d="M341.122-116.826C341.122-110.55 341.122-103.014 341.122-96.022" stroke="#000000" stroke-width="0.812988" fill="none" transform="matrix(1.0021 0 0 1 13.2588 278.704)"/><path d="M343.967-96.0139 341.122-87.884 338.276-96.0139 343.967-96.0139Z" stroke="#000000" stroke-width="0.812988" transform="matrix(1.0021 0 0 1 13.2588 278.704)"/><path d="M719.95-73.1689C719.95-65.0869 658.447-58.5351 582.579-58.5351 506.711-58.5351 445.208-65.0869 445.208-73.1689 445.208-81.2509 506.711-87.8027 582.579-87.8027 658.447-87.8027 719.95-81.2509 719.95-73.1689Z" stroke="#000000" stroke-width="0.812988" fill="#D3E6EF" transform="matrix(1.0021 0 0 1 13.2588 278.704)"/><text font-family="Arial,Arial_MSFontService,sans-serif" font-weight="400" font-size="14" transform="matrix(0.814696 0 0 0.812988 511.151 209)">target</text><text font-family="Arial,Arial_MSFontService,sans-serif" font-weight="400" font-size="14" transform="matrix(0.814696 0 0 0.812988 540.317 209)">: </text><text font-family="Arial,Arial_MSFontService,sans-serif" font-weight="400" font-size="14" transform="matrix(0.814696 0 0 0.812988 546.655 209)">hold</text><text font-family="Arial,Arial_MSFontService,sans-serif" font-weight="400" font-size="14" transform="matrix(0.814696 0 0 0.812988 568.219 209)">(</text><text font-family="Arial,Arial_MSFontService,sans-serif" font-weight="400" font-size="14" transform="matrix(0.814696 0 0 0.812988 572.017 209)">defaultgripper</text><text font-family="Arial,Arial_MSFontService,sans-serif" font-weight="400" font-size="14" transform="matrix(0.814696 0 0 0.812988 641.766 209)">, </text><text font-family="Arial,Arial_MSFontService,sans-serif" font-weight="400" font-size="14" transform="matrix(0.814696 0 0 0.812988 648.103 209)">shaft</text><text font-family="Arial,Arial_MSFontService,sans-serif" font-weight="400" font-size="14" transform="matrix(0.814696 0 0 0.812988 672.831 209)">1</text><text font-family="Arial,Arial_MSFontService,sans-serif" font-weight="400" font-size="14" transform="matrix(0.814696 0 0 0.812988 679.174 209)">)</text><path d="M734.518-123.68C708.568-115.192 664.683-100.835 630.724-89.7295" stroke="#000000" stroke-width="0.812988" fill="none" transform="matrix(1.0021 0 0 1 13.2588 278.704)"/><path d="M631.602-87.0222 622.984-87.2011 629.83-92.4286 631.602-87.0222Z" stroke="#000000" stroke-width="0.812988" transform="matrix(1.0021 0 0 1 13.2588 278.704)"/><path d="M768.753-87.8027C768.753-87.8027 744.364-87.8027 744.364-87.8027 739.486-87.8027 734.608-82.9248 734.608-78.0468 734.608-78.0468 734.608-68.291 734.608-68.291 734.608-63.4131 739.486-58.5351 744.364-58.5351 744.364-58.5351 768.753-58.5351 768.753-58.5351 773.631-58.5351 778.509-63.4131 778.509-68.291 778.509-68.291 778.509-78.0468 778.509-78.0468 778.509-82.9248 773.631-87.8027 768.753-87.8027" stroke="#000000" stroke-width="0.812988" fill="#94B5D7" transform="matrix(1.0021 0 0 1 13.2588 278.704)"/><text font-family="Arial,Arial_MSFontService,sans-serif" font-weight="400" font-size="14" transform="matrix(0.814696 0 0 0.812988 765.703 209)">→</text><path d="M756.558-116.826C756.558-110.55 756.558-103.014 756.558-96.022" stroke="#000000" stroke-width="0.812988" fill="none" transform="matrix(1.0021 0 0 1 13.2588 278.704)"/><path d="M759.404-96.0139 756.558-87.884 753.713-96.0139 759.404-96.0139Z" stroke="#000000" stroke-width="0.812988" transform="matrix(1.0021 0 0 1 13.2588 278.704)"/><path d="M719.706-14.6338C719.706-6.55177 656.128 2.88831e-15 577.701 2.88831e-15 499.274 5.77663e-15 435.697-6.55177 435.697-14.6338 435.697-22.7158 499.274-29.2676 577.701-29.2676 656.128-29.2676 719.706-22.7158 719.706-14.6338Z" stroke="#000000" stroke-width="0.812988" fill="#D3E6EF" transform="matrix(1.0021 0 0 1 13.2588 278.704)"/><text font-family="Arial,Arial_MSFontService,sans-serif" font-weight="400" font-size="14" transform="matrix(0.814696 0 0 0.812988 499.287 267)">precondition</text><text font-family="Arial,Arial_MSFontService,sans-serif" font-weight="400" font-size="14" transform="matrix(0.814696 0 0 0.812988 561.428 267)">: </text><text font-family="Arial,Arial_MSFontService,sans-serif" font-weight="400" font-size="14" transform="matrix(0.814696 0 0 0.812988 567.766 267)">pose</text><text font-family="Arial,Arial_MSFontService,sans-serif" font-weight="400" font-size="14" transform="matrix(0.814696 0 0 0.812988 592.499 267)">_</text><text font-family="Arial,Arial_MSFontService,sans-serif" font-weight="400" font-size="14" transform="matrix(0.814696 0 0 0.812988 598.842 267)">is</text><text font-family="Arial,Arial_MSFontService,sans-serif" font-weight="400" font-size="14" transform="matrix(0.814696 0 0 0.812988 607.079 267)">_</text><text font-family="Arial,Arial_MSFontService,sans-serif" font-weight="400" font-size="14" transform="matrix(0.814696 0 0 0.812988 613.423 267)">known</text><text font-family="Arial,Arial_MSFontService,sans-serif" font-weight="400" font-size="14" transform="matrix(0.814696 0 0 0.812988 646.392 267)">(</text><text font-family="Arial,Arial_MSFontService,sans-serif" font-weight="400" font-size="14" transform="matrix(0.814696 0 0 0.812988 650.19 267)">shaft</text><text font-family="Arial,Arial_MSFontService,sans-serif" font-weight="400" font-size="14" transform="matrix(0.814696 0 0 0.812988 674.918 267)">1</text><text font-family="Arial,Arial_MSFontService,sans-serif" font-weight="400" font-size="14" transform="matrix(0.814696 0 0 0.812988 681.261 267)">)</text><path d="M734.266-65.2667C707.625-56.7872 662.252-42.3485 627.188-31.1943" stroke="#000000" stroke-width="0.812988" fill="none" transform="matrix(1.0021 0 0 1 13.2588 278.704)"/><path d="M628.033-28.479 619.424-28.7229 626.31-33.9016 628.033-28.479Z" stroke="#000000" stroke-width="0.812988" transform="matrix(1.0021 0 0 1 13.2588 278.704)"/><text font-family="Arial,Arial_MSFontService,sans-serif" font-weight="400" font-size="25" transform="matrix(0.814696 0 0 0.812988 762.918 269)">...</text><path d="M1050.05-29.2676C1050.05-29.2676 802.899-29.2676 802.899-29.2676 798.021-29.2676 793.143-24.3896 793.143-19.5117 793.143-19.5117 793.143-9.75585 793.143-9.75585 793.143-4.87793 798.021 0 802.899 0 802.899 0 1050.05 0 1050.05 0 1054.92 0 1059.8-4.87793 1059.8-9.75585 1059.8-9.75585 1059.8-19.5117 1059.8-19.5117 1059.8-24.3896 1054.92-29.2676 1050.05-29.2676" stroke="#000000" stroke-width="0.812988" fill="#FFEFBE" transform="matrix(1.0021 0 0 1 13.2588 278.704)"/><text font-family="Arial,Arial_MSFontService,sans-serif" font-weight="400" font-size="14" transform="matrix(0.814696 0 0 0.812988 830.402 267)">action</text><text font-family="Arial,Arial_MSFontService,sans-serif" font-weight="400" font-size="14" transform="matrix(0.814696 0 0 0.812988 860.838 267)">: </text><text font-family="Arial,Arial_MSFontService,sans-serif" font-weight="400" font-size="14" transform="matrix(0.814696 0 0 0.812988 867.176 267)">pick</text><text font-family="Arial,Arial_MSFontService,sans-serif" font-weight="400" font-size="14" transform="matrix(0.814696 0 0 0.812988 887.459 267)">_</text><text font-family="Arial,Arial_MSFontService,sans-serif" font-weight="400" font-size="14" transform="matrix(0.814696 0 0 0.812988 893.802 267)">up</text><text font-family="Arial,Arial_MSFontService,sans-serif" font-weight="400" font-size="14" transform="matrix(0.814696 0 0 0.812988 906.489 267)">(</text><text font-family="Arial,Arial_MSFontService,sans-serif" font-weight="400" font-size="14" transform="matrix(0.814696 0 0 0.812988 910.287 267)">hand</text><text font-family="Arial,Arial_MSFontService,sans-serif" font-weight="400" font-size="14" transform="matrix(0.814696 0 0 0.812988 935.66 267)">, </text><text font-family="Arial,Arial_MSFontService,sans-serif" font-weight="400" font-size="14" transform="matrix(0.814696 0 0 0.812988 941.998 267)">defaultgripper</text><text font-family="Arial,Arial_MSFontService,sans-serif" font-weight="400" font-size="14" transform="matrix(0.814696 0 0 0.812988 1011.75 267)">, </text><text font-family="Arial,Arial_MSFontService,sans-serif" font-weight="400" font-size="14" transform="matrix(0.814696 0 0 0.812988 1018.08 267)">shaft</text><text font-family="Arial,Arial_MSFontService,sans-serif" font-weight="400" font-size="14" transform="matrix(0.814696 0 0 0.812988 1042.81 267)">1</text><text font-family="Arial,Arial_MSFontService,sans-serif" font-weight="400" font-size="14" transform="matrix(0.814696 0 0 0.812988 1049.16 267)">)</text><path d="M778.769-64.9171C803.614-56.5921 844.646-42.8526 877.157-31.9586" stroke="#000000" stroke-width="0.812988" fill="none" transform="matrix(1.0021 0 0 1 13.2588 278.704)"/><path d="M878.214-34.6089 885.019-29.3326 876.401-29.2107 878.214-34.6089Z" stroke="#000000" stroke-width="0.812988" transform="matrix(1.0021 0 0 1 13.2588 278.704)"/><path d="M1024.17-73.1689C1024.17-65.0869 972.422-58.5351 908.587-58.5351 844.753-58.5351 793.005-65.0869 793.005-73.1689 793.005-81.2509 844.753-87.8027 908.587-87.8027 972.422-87.8027 1024.17-81.2509 1024.17-73.1689Z" stroke="#000000" stroke-width="0.812988" fill="#D3E6EF" transform="matrix(1.0021 0 0 1 13.2588 278.704)"/><text font-family="Arial,Arial_MSFontService,sans-serif" font-weight="400" font-size="14" transform="matrix(0.814696 0 0 0.812988 848.938 209)">target</text><text font-family="Arial,Arial_MSFontService,sans-serif" font-weight="400" font-size="14" transform="matrix(0.814696 0 0 0.812988 878.104 209)">: </text><text font-family="Arial,Arial_MSFontService,sans-serif" font-weight="400" font-size="14" transform="matrix(0.814696 0 0 0.812988 884.441 209)">pose</text><text font-family="Arial,Arial_MSFontService,sans-serif" font-weight="400" font-size="14" transform="matrix(0.814696 0 0 0.812988 909.174 209)">_</text><text font-family="Arial,Arial_MSFontService,sans-serif" font-weight="400" font-size="14" transform="matrix(0.814696 0 0 0.812988 915.518 209)">is</text><text font-family="Arial,Arial_MSFontService,sans-serif" font-weight="400" font-size="14" transform="matrix(0.814696 0 0 0.812988 923.754 209)">_</text><text font-family="Arial,Arial_MSFontService,sans-serif" font-weight="400" font-size="14" transform="matrix(0.814696 0 0 0.812988 930.098 209)">known</text><text font-family="Arial,Arial_MSFontService,sans-serif" font-weight="400" font-size="14" transform="matrix(0.814696 0 0 0.812988 963.067 209)">(</text><text font-family="Arial,Arial_MSFontService,sans-serif" font-weight="400" font-size="14" transform="matrix(0.814696 0 0 0.812988 966.866 209)">hole</text><text font-family="Arial,Arial_MSFontService,sans-serif" font-weight="400" font-size="14" transform="matrix(0.814696 0 0 0.812988 988.43 209)">1</text><text font-family="Arial,Arial_MSFontService,sans-serif" font-weight="400" font-size="14" transform="matrix(0.814696 0 0 0.812988 994.773 209)">)</text><path d="M873.084-116.826C878.742-109.997 885.636-101.68 891.84-94.1928" stroke="#000000" stroke-width="0.812988" fill="none" transform="matrix(1.0021 0 0 1 13.2588 278.704)"/><path d="M894.067-95.9651 897.059-87.884 889.685-92.331 894.067-95.9651Z" stroke="#000000" stroke-width="0.812988" transform="matrix(1.0021 0 0 1 13.2588 278.704)"/><path d="M1204.51-87.8027C1204.51-87.8027 1048.42-87.8027 1048.42-87.8027 1043.54-87.8027 1038.67-82.9248 1038.67-78.0468 1038.67-78.0468 1038.67-68.291 1038.67-68.291 1038.67-63.4131 1043.54-58.5351 1048.42-58.5351 1048.42-58.5351 1204.51-58.5351 1204.51-58.5351 1209.39-58.5351 1214.27-63.4131 1214.27-68.291 1214.27-68.291 1214.27-78.0468 1214.27-78.0468 1214.27-82.9248 1209.39-87.8027 1204.51-87.8027" stroke="#000000" stroke-width="0.812988" fill="#FFEFBE" transform="matrix(1.0021 0 0 1 13.2588 278.704)"/><text font-family="Arial,Arial_MSFontService,sans-serif" font-weight="400" font-size="14" transform="matrix(0.814696 0 0 0.812988 1068.86 209)">action</text><text font-family="Arial,Arial_MSFontService,sans-serif" font-weight="400" font-size="14" transform="matrix(0.814696 0 0 0.812988 1099.3 209)">: </text><text font-family="Arial,Arial_MSFontService,sans-serif" font-weight="400" font-size="14" transform="matrix(0.814696 0 0 0.812988 1105.64 209)">estimate</text><text font-family="Arial,Arial_MSFontService,sans-serif" font-weight="400" font-size="14" transform="matrix(0.814696 0 0 0.812988 1148.74 209)">_</text><text font-family="Arial,Arial_MSFontService,sans-serif" font-weight="400" font-size="14" transform="matrix(0.814696 0 0 0.812988 1155.09 209)">pose</text><text font-family="Arial,Arial_MSFontService,sans-serif" font-weight="400" font-size="14" transform="matrix(0.814696 0 0 0.812988 1179.82 209)">(</text><text font-family="Arial,Arial_MSFontService,sans-serif" font-weight="400" font-size="14" transform="matrix(0.814696 0 0 0.812988 1183.62 209)">hole</text><text font-family="Arial,Arial_MSFontService,sans-serif" font-weight="400" font-size="14" transform="matrix(0.814696 0 0 0.812988 1205.18 209)">1</text><text font-family="Arial,Arial_MSFontService,sans-serif" font-weight="400" font-size="14" transform="matrix(0.814696 0 0 0.812988 1211.52 209)">)</text><path d="M883.571-126.135C920.57-118.192 996.528-101.884 1053.71-89.6075" stroke="#000000" stroke-width="0.812988" fill="none" transform="matrix(1.0021 0 0 1 13.2588 278.704)"/><path d="M1054.65-92.3148 1062-87.8271 1053.45-86.7458 1054.65-92.3148Z" stroke="#000000" stroke-width="0.812988" transform="matrix(1.0021 0 0 1 13.2588 278.704)"/></g></svg>