<svg width="915" height="412" xmlns="http://www.w3.org/2000/svg" xmlns:xlink="http://www.w3.org/1999/xlink" xml:space="preserve" overflow="hidden"><g transform="translate(-365 0)"><path d="M341.311-404.347C341.311-404.347 315.391-404.347 315.391-404.347 310.207-404.347 305.023-399.163 305.023-393.979 305.023-393.979 305.023-383.612 305.023-383.612 305.023-378.428 310.207-373.244 315.391-373.244 315.391-373.244 341.311-373.244 341.311-373.244 346.495-373.244 351.678-378.428 351.678-383.612 351.678-383.612 351.678-393.979 351.678-393.979 351.678-399.163 346.495-404.347 341.311-404.347" stroke="#000000" stroke-width="0.86399" fill="#94B5D7" transform="matrix(1 0 0 1.00124 368.456 408.424)"/><text font-family="Arial,Arial_MSFontService,sans-serif" font-weight="400" font-size="14" transform="matrix(0.86399 0 0 0.865059 690.759 22)">→</text><path d="M390.273-326.588C390.273-317.999 317.678-311.036 228.128-311.036 138.578-311.036 65.9829-317.999 65.9829-326.588 65.9829-335.177 138.578-342.14 228.128-342.14 317.678-342.14 390.273-335.177 390.273-326.588Z" stroke="#000000" stroke-width="0.86399" fill="#D3E6EF" transform="matrix(1 0 0 1.00124 368.456 408.424)"/><text font-family="Arial,Arial_MSFontService,sans-serif" font-weight="400" font-size="14" transform="matrix(0.86399 0 0 0.865059 492.363 85)">precondition</text><text font-family="Arial,Arial_MSFontService,sans-serif" font-weight="400" font-size="14" transform="matrix(0.86399 0 0 0.865059 558.265 85)">: </text><text font-family="Arial,Arial_MSFontService,sans-serif" font-weight="400" font-size="14" transform="matrix(0.86399 0 0 0.865059 564.986 85)">is</text><text font-family="Arial,Arial_MSFontService,sans-serif" font-weight="400" font-size="14" transform="matrix(0.86399 0 0 0.865059 573.721 85)">_</text><text font-family="Arial,Arial_MSFontService,sans-serif" font-weight="400" font-size="14" transform="matrix(0.86399 0 0 0.865059 580.448 85)">inserted</text><text font-family="Arial,Arial_MSFontService,sans-serif" font-weight="400" font-size="14" transform="matrix(0.86399 0 0 0.865059 623.481 85)">(</text><text font-family="Arial,Arial_MSFontService,sans-serif" font-weight="400" font-size="14" transform="matrix(0.86399 0 0 0.865059 627.509 85)">shatf</text><text font-family="Arial,Arial_MSFontService,sans-serif" font-weight="400" font-size="14" transform="matrix(0.86399 0 0 0.865059 653.732 85)">1</text><text font-family="Arial,Arial_MSFontService,sans-serif" font-weight="400" font-size="14" transform="matrix(0.86399 0 0 0.865059 660.459 85)">, </text><text font-family="Arial,Arial_MSFontService,sans-serif" font-weight="400" font-size="14" transform="matrix(0.86399 0 0 0.865059 667.18 85)">hole</text><text font-family="Arial,Arial_MSFontService,sans-serif" font-weight="400" font-size="14" transform="matrix(0.86399 0 0 0.865059 690.049 85)">1</text><text font-family="Arial,Arial_MSFontService,sans-serif" font-weight="400" font-size="14" transform="matrix(0.86399 0 0 0.865059 696.776 85)">)</text><path d="M304.85-373.753C291.571-365.736 274.783-355.61 260.294-346.866" stroke="#000000" stroke-width="0.86399" fill="none" transform="matrix(1 0 0 1.00124 368.456 408.424)"/><path d="M261.478-344.049 252.518-342.175 258.359-349.225 261.478-344.049Z" stroke="#000000" stroke-width="0.86399" transform="matrix(1 0 0 1.00124 368.456 408.424)"/><path d="M442.397-342.14C442.397-342.14 416.478-342.14 416.478-342.14 411.294-342.14 406.11-336.956 406.11-331.772 406.11-331.772 406.11-321.404 406.11-321.404 406.11-316.22 411.294-311.036 416.478-311.036 416.478-311.036 442.397-311.036 442.397-311.036 447.581-311.036 452.765-316.22 452.765-321.404 452.765-321.404 452.765-331.772 452.765-331.772 452.765-336.956 447.581-342.14 442.397-342.14" stroke="#000000" stroke-width="0.86399" fill="#F4B183" transform="matrix(1 0 0 1.00124 368.456 408.424)"/><text font-family="Arial,Arial_MSFontService,sans-serif" font-weight="400" font-size="14" transform="matrix(0.86399 0 0 0.865059 794.53 85)">?</text><path d="M351.791-373.9C365.597-365.641 383.24-355.091 398.213-346.132" stroke="#000000" stroke-width="0.86399" fill="none" transform="matrix(1 0 0 1.00124 368.456 408.424)"/><path d="M399.906-348.646 405.764-341.613 396.796-343.453 399.906-348.646Z" stroke="#000000" stroke-width="0.86399" transform="matrix(1 0 0 1.00124 368.456 408.424)"/><path d="M484.534-264.381C484.534-255.792 417.703-248.829 335.263-248.829 252.822-248.829 185.991-255.792 185.991-264.381 185.991-272.97 252.822-279.933 335.263-279.933 417.703-279.933 484.534-272.97 484.534-264.381Z" stroke="#000000" stroke-width="0.86399" fill="#D3E6EF" transform="matrix(1 0 0 1.00124 368.456 408.424)"/><text font-family="Arial,Arial_MSFontService,sans-serif" font-weight="400" font-size="14" transform="matrix(0.86399 0 0 0.865059 607.906 147)">target</text><text font-family="Arial,Arial_MSFontService,sans-serif" font-weight="400" font-size="14" transform="matrix(0.86399 0 0 0.865059 638.836 147)">: </text><text font-family="Arial,Arial_MSFontService,sans-serif" font-weight="400" font-size="14" transform="matrix(0.86399 0 0 0.865059 645.557 147)">is</text><text font-family="Arial,Arial_MSFontService,sans-serif" font-weight="400" font-size="14" transform="matrix(0.86399 0 0 0.865059 654.293 147)">_</text><text font-family="Arial,Arial_MSFontService,sans-serif" font-weight="400" font-size="14" transform="matrix(0.86399 0 0 0.865059 661.02 147)">inserted</text><text font-family="Arial,Arial_MSFontService,sans-serif" font-weight="400" font-size="14" transform="matrix(0.86399 0 0 0.865059 704.052 147)">_</text><text font-family="Arial,Arial_MSFontService,sans-serif" font-weight="400" font-size="14" transform="matrix(0.86399 0 0 0.865059 710.779 147)">to</text><text font-family="Arial,Arial_MSFontService,sans-serif" font-weight="400" font-size="14" transform="matrix(0.86399 0 0 0.865059 720.867 147)">(</text><text font-family="Arial,Arial_MSFontService,sans-serif" font-weight="400" font-size="14" transform="matrix(0.86399 0 0 0.865059 724.895 147)">gear</text><text font-family="Arial,Arial_MSFontService,sans-serif" font-weight="400" font-size="14" transform="matrix(0.86399 0 0 0.865059 749.105 147)">1</text><text font-family="Arial,Arial_MSFontService,sans-serif" font-weight="400" font-size="14" transform="matrix(0.86399 0 0 0.865059 755.832 147)">, </text><text font-family="Arial,Arial_MSFontService,sans-serif" font-weight="400" font-size="14" transform="matrix(0.86399 0 0 0.865059 762.553 147)">shaft</text><text font-family="Arial,Arial_MSFontService,sans-serif" font-weight="400" font-size="14" transform="matrix(0.86399 0 0 0.865059 788.777 147)">1</text><text font-family="Arial,Arial_MSFontService,sans-serif" font-weight="400" font-size="14" transform="matrix(0.86399 0 0 0.865059 795.504 147)">)</text><path d="M406.395-310.933C394.109-303.036 378.825-293.221 365.58-284.719" stroke="#000000" stroke-width="0.86399" fill="none" transform="matrix(1 0 0 1.00124 368.456 408.424)"/><path d="M366.962-282.015 358.055-279.89 363.697-287.104 366.962-282.015Z" stroke="#000000" stroke-width="0.86399" transform="matrix(1 0 0 1.00124 368.456 408.424)"/><path d="M536.572-279.933C536.572-279.933 510.653-279.933 510.653-279.933 505.469-279.933 500.285-274.749 500.285-269.565 500.285-269.565 500.285-259.197 500.285-259.197 500.285-254.013 505.469-248.829 510.653-248.829 510.653-248.829 536.572-248.829 536.572-248.829 541.756-248.829 546.94-254.013 546.94-259.197 546.94-259.197 546.94-269.565 546.94-269.565 546.94-274.749 541.756-279.933 536.572-279.933" stroke="#000000" stroke-width="0.86399" fill="#94B5D7" transform="matrix(1 0 0 1.00124 368.456 408.424)"/><text font-family="Arial,Arial_MSFontService,sans-serif" font-weight="400" font-size="14" transform="matrix(0.86399 0 0 0.865059 886.021 147)">→</text><path d="M452.472-310.933C464.671-303.096 479.817-293.368 492.993-284.909" stroke="#000000" stroke-width="0.86399" fill="none" transform="matrix(1 0 0 1.00124 368.456 408.424)"/><path d="M494.85-287.311 500.484-280.097 491.576-282.222 494.85-287.311Z" stroke="#000000" stroke-width="0.86399" transform="matrix(1 0 0 1.00124 368.456 408.424)"/><path d="M340.447-217.725C340.447-217.725 314.527-217.725 314.527-217.725 309.343-217.725 304.159-212.542 304.159-207.358 304.159-207.358 304.159-196.99 304.159-196.99 304.159-191.806 309.343-186.622 314.527-186.622 314.527-186.622 340.447-186.622 340.447-186.622 345.631-186.622 350.815-191.806 350.815-196.99 350.815-196.99 350.815-207.358 350.815-207.358 350.815-212.542 345.631-217.725 340.447-217.725" stroke="#000000" stroke-width="0.86399" fill="#F4B183" transform="matrix(1 0 0 1.00124 368.456 408.424)"/><text font-family="Arial,Arial_MSFontService,sans-serif" font-weight="400" font-size="14" transform="matrix(0.86399 0 0 0.865059 692.579 209)">?</text><path d="M499.948-256.225C464.809-245.382 398.749-225.009 359.368-212.87" stroke="#000000" stroke-width="0.86399" fill="none" transform="matrix(1 0 0 1.00124 368.456 408.424)"/><path d="M360.068-209.924 350.918-210.261 358.288-215.704 360.068-209.924Z" stroke="#000000" stroke-width="0.86399" transform="matrix(1 0 0 1.00124 368.456 408.424)"/><path d="M505.469-217.725C505.469-217.725 479.549-217.725 479.549-217.725 474.365-217.725 469.181-212.542 469.181-207.358 469.181-207.358 469.181-196.99 469.181-196.99 469.181-191.806 474.365-186.622 479.549-186.622 479.549-186.622 505.469-186.622 505.469-186.622 510.653-186.622 515.837-191.806 515.837-196.99 515.837-196.99 515.837-207.358 515.837-207.358 515.837-212.542 510.653-217.725 505.469-217.725" stroke="#000000" stroke-width="0.86399" fill="#F4B183" transform="matrix(1 0 0 1.00124 368.456 408.424)"/><text font-family="Arial,Arial_MSFontService,sans-serif" font-weight="400" font-size="14" transform="matrix(0.86399 0 0 0.865059 857.601 209)">?</text><path d="M515.923-248.57C512.381-241.684 508.104-233.364 504.173-225.726" stroke="#000000" stroke-width="0.86399" fill="none" transform="matrix(1 0 0 1.00124 368.456 408.424)"/><path d="M506.747-224.119 500.103-217.812 501.365-226.884 506.747-224.119Z" stroke="#000000" stroke-width="0.86399" transform="matrix(1 0 0 1.00124 368.456 408.424)"/><text font-family="Arial,Arial_MSFontService,sans-serif" font-weight="400" font-size="25" transform="matrix(0.86399 0 0 0.865059 914.17 211)">...</text><path d="M897.72-217.725C897.72-217.725 603.964-217.725 603.964-217.725 598.78-217.725 593.596-212.542 593.596-207.358 593.596-207.358 593.596-196.99 593.596-196.99 593.596-191.806 598.78-186.622 603.964-186.622 603.964-186.622 897.72-186.622 897.72-186.622 902.904-186.622 908.088-191.806 908.088-196.99 908.088-196.99 908.088-207.358 908.088-207.358 908.088-212.542 902.904-217.725 897.72-217.725" stroke="#000000" stroke-width="0.86399" fill="#FFEFBE" transform="matrix(1 0 0 1.00124 368.456 408.424)"/><text font-family="Arial,Arial_MSFontService,sans-serif" font-weight="400" font-size="14" transform="matrix(0.86399 0 0 0.865059 988.517 209)">action</text><text font-family="Arial,Arial_MSFontService,sans-serif" font-weight="400" font-size="14" transform="matrix(0.86399 0 0 0.865059 1020.79 209)">: </text><text font-family="Arial,Arial_MSFontService,sans-serif" font-weight="400" font-size="14" transform="matrix(0.86399 0 0 0.865059 1027.52 209)">insert</text><text font-family="Arial,Arial_MSFontService,sans-serif" font-weight="400" font-size="14" transform="matrix(0.86399 0 0 0.865059 1057.09 209)">(</text><text font-family="Arial,Arial_MSFontService,sans-serif" font-weight="400" font-size="14" transform="matrix(0.86399 0 0 0.865059 1061.12 209)">hand</text><text font-family="Arial,Arial_MSFontService,sans-serif" font-weight="400" font-size="14" transform="matrix(0.86399 0 0 0.865059 1088.03 209)">, </text><text font-family="Arial,Arial_MSFontService,sans-serif" font-weight="400" font-size="14" transform="matrix(0.86399 0 0 0.865059 1094.75 209)">defaultgripper</text><text font-family="Arial,Arial_MSFontService,sans-serif" font-weight="400" font-size="14" transform="matrix(0.86399 0 0 0.865059 1168.72 209)">, </text><text font-family="Arial,Arial_MSFontService,sans-serif" font-weight="400" font-size="14" transform="matrix(0.86399 0 0 0.865059 1175.44 209)">gear</text><text font-family="Arial,Arial_MSFontService,sans-serif" font-weight="400" font-size="14" transform="matrix(0.86399 0 0 0.865059 1199.65 209)">1</text><text font-family="Arial,Arial_MSFontService,sans-serif" font-weight="400" font-size="14" transform="matrix(0.86399 0 0 0.865059 1206.38 209)">, </text><text font-family="Arial,Arial_MSFontService,sans-serif" font-weight="400" font-size="14" transform="matrix(0.86399 0 0 0.865059 1213.1 209)">shaft</text><text font-family="Arial,Arial_MSFontService,sans-serif" font-weight="400" font-size="14" transform="matrix(0.86399 0 0 0.865059 1239.32 209)">1</text><text font-family="Arial,Arial_MSFontService,sans-serif" font-weight="400" font-size="14" transform="matrix(0.86399 0 0 0.865059 1246.05 209)">)</text><path d="M547.07-257.27C579.789-248.561 640.346-232.448 686.976-220.032" stroke="#000000" stroke-width="0.86399" fill="none" transform="matrix(1 0 0 1.00124 368.456 408.424)"/><path d="M687.935-222.909 695.503-217.769 686.38-217.069 687.935-222.909Z" stroke="#000000" stroke-width="0.86399" transform="matrix(1 0 0 1.00124 368.456 408.424)"/><path d="M288.668-139.966C288.668-131.377 224.041-124.415 144.321-124.415 64.6003-124.415-0.0259387-131.377-0.0259387-139.966-0.0259387-148.555 64.6003-155.518 144.321-155.518 224.041-155.518 288.668-148.555 288.668-139.966Z" stroke="#000000" stroke-width="0.86399" fill="#D3E6EF" transform="matrix(1 0 0 1.00124 368.456 408.424)"/><text font-family="Arial,Arial_MSFontService,sans-serif" font-weight="400" font-size="14" transform="matrix(0.86399 0 0 0.865059 422.675 271)">target</text><text font-family="Arial,Arial_MSFontService,sans-serif" font-weight="400" font-size="14" transform="matrix(0.86399 0 0 0.865059 453.606 271)">: </text><text font-family="Arial,Arial_MSFontService,sans-serif" font-weight="400" font-size="14" transform="matrix(0.86399 0 0 0.865059 460.327 271)">hold</text><text font-family="Arial,Arial_MSFontService,sans-serif" font-weight="400" font-size="14" transform="matrix(0.86399 0 0 0.865059 483.196 271)">(</text><text font-family="Arial,Arial_MSFontService,sans-serif" font-weight="400" font-size="14" transform="matrix(0.86399 0 0 0.865059 487.224 271)">defaultgripper</text><text font-family="Arial,Arial_MSFontService,sans-serif" font-weight="400" font-size="14" transform="matrix(0.86399 0 0 0.865059 561.193 271)">, </text><text font-family="Arial,Arial_MSFontService,sans-serif" font-weight="400" font-size="14" transform="matrix(0.86399 0 0 0.865059 567.914 271)">gear</text><text font-family="Arial,Arial_MSFontService,sans-serif" font-weight="400" font-size="14" transform="matrix(0.86399 0 0 0.865059 592.123 271)">1</text><text font-family="Arial,Arial_MSFontService,sans-serif" font-weight="400" font-size="14" transform="matrix(0.86399 0 0 0.865059 598.851 271)">)</text><path d="M303.908-193.525C276.632-184.522 230.901-169.42 195.365-157.687" stroke="#000000" stroke-width="0.86399" fill="none" transform="matrix(1 0 0 1.00124 368.456 408.424)"/><path d="M196.186-154.775 187.037-154.931 194.285-160.512 196.186-154.775Z" stroke="#000000" stroke-width="0.86399" transform="matrix(1 0 0 1.00124 368.456 408.424)"/><path d="M340.447-155.518C340.447-155.518 314.527-155.518 314.527-155.518 309.343-155.518 304.159-150.334 304.159-145.15 304.159-145.15 304.159-134.782 304.159-134.782 304.159-129.598 309.343-124.415 314.527-124.415 314.527-124.415 340.447-124.415 340.447-124.415 345.631-124.415 350.815-129.598 350.815-134.782 350.815-134.782 350.815-145.15 350.815-145.15 350.815-150.334 345.631-155.518 340.447-155.518" stroke="#000000" stroke-width="0.86399" fill="#94B5D7" transform="matrix(1 0 0 1.00124 368.456 408.424)"/><text font-family="Arial,Arial_MSFontService,sans-serif" font-weight="400" font-size="14" transform="matrix(0.86399 0 0 0.865059 689.895 271)">→</text><path d="M327.487-186.363C327.487-179.693 327.487-171.683 327.487-164.253" stroke="#000000" stroke-width="0.86399" fill="none" transform="matrix(1 0 0 1.00124 368.456 408.424)"/><path d="M330.511-164.245 327.487-155.605 324.463-164.245 330.511-164.245Z" stroke="#000000" stroke-width="0.86399" transform="matrix(1 0 0 1.00124 368.456 408.424)"/><path d="M278.239-93.3109C278.239-93.3109 252.32-93.3109 252.32-93.3109 247.136-93.3109 241.952-88.127 241.952-82.943 241.952-82.943 241.952-72.5752 241.952-72.5752 241.952-67.3912 247.136-62.2073 252.32-62.2073 252.32-62.2073 278.239-62.2073 278.239-62.2073 283.423-62.2073 288.607-67.3912 288.607-72.5752 288.607-72.5752 288.607-82.943 288.607-82.943 288.607-88.127 283.423-93.3109 278.239-93.3109" stroke="#000000" stroke-width="0.86399" fill="#F4B183" transform="matrix(1 0 0 1.00124 368.456 408.424)"/><text font-family="Arial,Arial_MSFontService,sans-serif" font-weight="400" font-size="14" transform="matrix(0.86399 0 0 0.865059 630.372 334)">?</text><path d="M312.108-124.155C304.496-116.76 295.182-107.705 286.871-99.618" stroke="#000000" stroke-width="0.86399" fill="none" transform="matrix(1 0 0 1.00124 368.456 408.424)"/><path d="M288.78-97.2594 280.477-93.3973 284.564-101.588 288.78-97.2594Z" stroke="#000000" stroke-width="0.86399" transform="matrix(1 0 0 1.00124 368.456 408.424)"/><text font-family="Arial,Arial_MSFontService,sans-serif" font-weight="400" font-size="25" transform="matrix(0.86399 0 0 0.865059 686.941 336)">...</text><path d="M636.363-93.3109C636.363-93.3109 376.302-93.3109 376.302-93.3109 371.118-93.3109 365.934-88.127 365.934-82.943 365.934-82.943 365.934-72.5752 365.934-72.5752 365.934-67.3912 371.118-62.2073 376.302-62.2073 376.302-62.2073 636.363-62.2073 636.363-62.2073 641.547-62.2073 646.731-67.3912 646.731-72.5752 646.731-72.5752 646.731-82.943 646.731-82.943 646.731-88.127 641.547-93.3109 636.363-93.3109" stroke="#000000" stroke-width="0.86399" fill="#FFEFBE" transform="matrix(1 0 0 1.00124 368.456 408.424)"/><text font-family="Arial,Arial_MSFontService,sans-serif" font-weight="400" font-size="14" transform="matrix(0.86399 0 0 0.865059 757.787 334)">action</text><text font-family="Arial,Arial_MSFontService,sans-serif" font-weight="400" font-size="14" transform="matrix(0.86399 0 0 0.865059 790.065 334)">: </text><text font-family="Arial,Arial_MSFontService,sans-serif" font-weight="400" font-size="14" transform="matrix(0.86399 0 0 0.865059 796.786 334)">pick</text><text font-family="Arial,Arial_MSFontService,sans-serif" font-weight="400" font-size="14" transform="matrix(0.86399 0 0 0.865059 818.296 334)">_</text><text font-family="Arial,Arial_MSFontService,sans-serif" font-weight="400" font-size="14" transform="matrix(0.86399 0 0 0.865059 825.023 334)">up</text><text font-family="Arial,Arial_MSFontService,sans-serif" font-weight="400" font-size="14" transform="matrix(0.86399 0 0 0.865059 838.477 334)">(</text><text font-family="Arial,Arial_MSFontService,sans-serif" font-weight="400" font-size="14" transform="matrix(0.86399 0 0 0.865059 842.505 334)">hand</text><text font-family="Arial,Arial_MSFontService,sans-serif" font-weight="400" font-size="14" transform="matrix(0.86399 0 0 0.865059 869.414 334)">, </text><text font-family="Arial,Arial_MSFontService,sans-serif" font-weight="400" font-size="14" transform="matrix(0.86399 0 0 0.865059 876.135 334)">defaultgripper</text><text font-family="Arial,Arial_MSFontService,sans-serif" font-weight="400" font-size="14" transform="matrix(0.86399 0 0 0.865059 950.104 334)">, </text><text font-family="Arial,Arial_MSFontService,sans-serif" font-weight="400" font-size="14" transform="matrix(0.86399 0 0 0.865059 956.826 334)">gear</text><text font-family="Arial,Arial_MSFontService,sans-serif" font-weight="400" font-size="14" transform="matrix(0.86399 0 0 0.865059 981.035 334)">1</text><text font-family="Arial,Arial_MSFontService,sans-serif" font-weight="400" font-size="14" transform="matrix(0.86399 0 0 0.865059 987.762 334)">)</text><path d="M350.866-131.197C377.019-122.35 420.202-107.748 454.424-96.1707" stroke="#000000" stroke-width="0.86399" fill="none" transform="matrix(1 0 0 1.00124 368.456 408.424)"/><path d="M455.478-99.0133 462.693-93.38 453.543-93.285 455.478-99.0133Z" stroke="#000000" stroke-width="0.86399" transform="matrix(1 0 0 1.00124 368.456 408.424)"/><path d="M272.857-15.5518C272.857-6.96279 217.243 3.06951e-15 148.641 3.06951e-15 80.0383 6.13902e-15 24.425-6.96279 24.425-15.5518 24.425-24.1409 80.0383-31.1036 148.641-31.1036 217.243-31.1036 272.857-24.1409 272.857-15.5518Z" stroke="#000000" stroke-width="0.86399" fill="#D3E6EF" transform="matrix(1 0 0 1.00124 368.456 408.424)"/><text font-family="Arial,Arial_MSFontService,sans-serif" font-weight="400" font-size="14" transform="matrix(0.86399 0 0 0.865059 437.083 396)">target</text><text font-family="Arial,Arial_MSFontService,sans-serif" font-weight="400" font-size="14" transform="matrix(0.86399 0 0 0.865059 468.013 396)">: </text><text font-family="Arial,Arial_MSFontService,sans-serif" font-weight="400" font-size="14" transform="matrix(0.86399 0 0 0.865059 474.735 396)">pose</text><text font-family="Arial,Arial_MSFontService,sans-serif" font-weight="400" font-size="14" transform="matrix(0.86399 0 0 0.865059 500.964 396)">_</text><text font-family="Arial,Arial_MSFontService,sans-serif" font-weight="400" font-size="14" transform="matrix(0.86399 0 0 0.865059 507.691 396)">is</text><text font-family="Arial,Arial_MSFontService,sans-serif" font-weight="400" font-size="14" transform="matrix(0.86399 0 0 0.865059 516.426 396)">_</text><text font-family="Arial,Arial_MSFontService,sans-serif" font-weight="400" font-size="14" transform="matrix(0.86399 0 0 0.865059 523.154 396)">known</text><text font-family="Arial,Arial_MSFontService,sans-serif" font-weight="400" font-size="14" transform="matrix(0.86399 0 0 0.865059 558.118 396)">(</text><text font-family="Arial,Arial_MSFontService,sans-serif" font-weight="400" font-size="14" transform="matrix(0.86399 0 0 0.865059 562.146 396)">gear</text><text font-family="Arial,Arial_MSFontService,sans-serif" font-weight="400" font-size="14" transform="matrix(0.86399 0 0 0.865059 586.356 396)">1</text><text font-family="Arial,Arial_MSFontService,sans-serif" font-weight="400" font-size="14" transform="matrix(0.86399 0 0 0.865059 593.083 396)">)</text><path d="M241.675-64.6524C225.13-56.0816 202.727-44.4609 184.056-34.7842" stroke="#000000" stroke-width="0.86399" fill="none" transform="matrix(1 0 0 1.00124 368.456 408.424)"/><path d="M185.369-32.054 176.306-30.7667 182.587-37.428 185.369-32.054Z" stroke="#000000" stroke-width="0.86399" transform="matrix(1 0 0 1.00124 368.456 408.424)"/><path d="M466.589-31.1036C466.589-31.1036 298.975-31.1036 298.975-31.1036 293.791-31.1036 288.607-25.9197 288.607-20.7358 288.607-20.7358 288.607-10.3679 288.607-10.3679 288.607-5.18394 293.791 0 298.975 0 298.975 0 466.589 0 466.589 0 471.773 0 476.957-5.18394 476.957-10.3679 476.957-10.3679 476.957-20.7358 476.957-20.7358 476.957-25.9197 471.773-31.1036 466.589-31.1036" stroke="#000000" stroke-width="0.86399" fill="#FFEFBE" transform="matrix(1 0 0 1.00124 368.456 408.424)"/><text font-family="Arial,Arial_MSFontService,sans-serif" font-weight="400" font-size="14" transform="matrix(0.86399 0 0 0.865059 672.907 396)">action</text><text font-family="Arial,Arial_MSFontService,sans-serif" font-weight="400" font-size="14" transform="matrix(0.86399 0 0 0.865059 705.185 396)">: </text><text font-family="Arial,Arial_MSFontService,sans-serif" font-weight="400" font-size="14" transform="matrix(0.86399 0 0 0.865059 711.906 396)">estimate</text><text font-family="Arial,Arial_MSFontService,sans-serif" font-weight="400" font-size="14" transform="matrix(0.86399 0 0 0.865059 757.62 396)">_</text><text font-family="Arial,Arial_MSFontService,sans-serif" font-weight="400" font-size="14" transform="matrix(0.86399 0 0 0.865059 764.347 396)">pose</text><text font-family="Arial,Arial_MSFontService,sans-serif" font-weight="400" font-size="14" transform="matrix(0.86399 0 0 0.865059 790.576 396)">(</text><text font-family="Arial,Arial_MSFontService,sans-serif" font-weight="400" font-size="14" transform="matrix(0.86399 0 0 0.865059 794.604 396)">gear</text><text font-family="Arial,Arial_MSFontService,sans-serif" font-weight="400" font-size="14" transform="matrix(0.86399 0 0 0.865059 818.814 396)">1</text><text font-family="Arial,Arial_MSFontService,sans-serif" font-weight="400" font-size="14" transform="matrix(0.86399 0 0 0.865059 825.541 396)">)</text><path d="M288.771-64.7992C305.179-56.3581 327.409-44.9102 346.132-35.2767" stroke="#000000" stroke-width="0.86399" fill="none" transform="matrix(1 0 0 1.00124 368.456 408.424)"/><path d="M347.618-37.9119 353.916-31.2678 344.853-32.5379 347.618-37.9119Z" stroke="#000000" stroke-width="0.86399" transform="matrix(1 0 0 1.00124 368.456 408.424)"/><path d="M618.366-139.966C618.366-131.377 562.018-124.415 492.509-124.415 423-124.415 366.651-131.377 366.651-139.966 366.651-148.555 423-155.518 492.509-155.518 562.018-155.518 618.366-148.555 618.366-139.966Z" stroke="#000000" stroke-width="0.86399" fill="#D3E6EF" transform="matrix(1 0 0 1.00124 368.456 408.424)"/><text font-family="Arial,Arial_MSFontService,sans-serif" font-weight="400" font-size="14" transform="matrix(0.86399 0 0 0.865059 779.944 271)">target</text><text font-family="Arial,Arial_MSFontService,sans-serif" font-weight="400" font-size="14" transform="matrix(0.86399 0 0 0.865059 810.875 271)">: </text><text font-family="Arial,Arial_MSFontService,sans-serif" font-weight="400" font-size="14" transform="matrix(0.86399 0 0 0.865059 817.596 271)">pose</text><text font-family="Arial,Arial_MSFontService,sans-serif" font-weight="400" font-size="14" transform="matrix(0.86399 0 0 0.865059 843.825 271)">_</text><text font-family="Arial,Arial_MSFontService,sans-serif" font-weight="400" font-size="14" transform="matrix(0.86399 0 0 0.865059 850.552 271)">is</text><text font-family="Arial,Arial_MSFontService,sans-serif" font-weight="400" font-size="14" transform="matrix(0.86399 0 0 0.865059 859.287 271)">_</text><text font-family="Arial,Arial_MSFontService,sans-serif" font-weight="400" font-size="14" transform="matrix(0.86399 0 0 0.865059 866.015 271)">known</text><text font-family="Arial,Arial_MSFontService,sans-serif" font-weight="400" font-size="14" transform="matrix(0.86399 0 0 0.865059 900.979 271)">(</text><text font-family="Arial,Arial_MSFontService,sans-serif" font-weight="400" font-size="14" transform="matrix(0.86399 0 0 0.865059 905.007 271)">shaft</text><text font-family="Arial,Arial_MSFontService,sans-serif" font-weight="400" font-size="14" transform="matrix(0.86399 0 0 0.865059 931.231 271)">1</text><text font-family="Arial,Arial_MSFontService,sans-serif" font-weight="400" font-size="14" transform="matrix(0.86399 0 0 0.865059 937.958 271)">)</text><path d="M492.509-186.363C492.509-179.693 492.509-171.683 492.509-164.253" stroke="#000000" stroke-width="0.86399" fill="none" transform="matrix(1 0 0 1.00124 368.456 408.424)"/><path d="M495.533-164.245 492.509-155.605 489.485-164.245 495.533-164.245Z" stroke="#000000" stroke-width="0.86399" transform="matrix(1 0 0 1.00124 368.456 408.424)"/><path d="M814.345-155.518C814.345-155.518 644.139-155.518 644.139-155.518 638.955-155.518 633.771-150.334 633.771-145.15 633.771-145.15 633.771-134.782 633.771-134.782 633.771-129.598 638.955-124.415 644.139-124.415 644.139-124.415 814.345-124.415 814.345-124.415 819.529-124.415 824.713-129.598 824.713-134.782 824.713-134.782 824.713-145.15 824.713-145.15 824.713-150.334 819.529-155.518 814.345-155.518" stroke="#000000" stroke-width="0.86399" fill="#FFEFBE" transform="matrix(1 0 0 1.00124 368.456 408.424)"/><text font-family="Arial,Arial_MSFontService,sans-serif" font-weight="400" font-size="14" transform="matrix(0.86399 0 0 0.865059 1018.36 271)">action</text><text font-family="Arial,Arial_MSFontService,sans-serif" font-weight="400" font-size="14" transform="matrix(0.86399 0 0 0.865059 1050.64 271)">: </text><text font-family="Arial,Arial_MSFontService,sans-serif" font-weight="400" font-size="14" transform="matrix(0.86399 0 0 0.865059 1057.36 271)">estimate</text><text font-family="Arial,Arial_MSFontService,sans-serif" font-weight="400" font-size="14" transform="matrix(0.86399 0 0 0.865059 1103.07 271)">_</text><text font-family="Arial,Arial_MSFontService,sans-serif" font-weight="400" font-size="14" transform="matrix(0.86399 0 0 0.865059 1109.8 271)">pose</text><text font-family="Arial,Arial_MSFontService,sans-serif" font-weight="400" font-size="14" transform="matrix(0.86399 0 0 0.865059 1136.03 271)">(</text><text font-family="Arial,Arial_MSFontService,sans-serif" font-weight="400" font-size="14" transform="matrix(0.86399 0 0 0.865059 1140.06 271)">shaft</text><text font-family="Arial,Arial_MSFontService,sans-serif" font-weight="400" font-size="14" transform="matrix(0.86399 0 0 0.865059 1166.28 271)">1</text><text font-family="Arial,Arial_MSFontService,sans-serif" font-weight="400" font-size="14" transform="matrix(0.86399 0 0 0.865059 1173.01 271)">)</text><path d="M516.07-195.288C549.999-186.622 613.908-170.292 662.931-157.773" stroke="#000000" stroke-width="0.86399" fill="none" transform="matrix(1 0 0 1.00124 368.456 408.424)"/><path d="M663.968-160.624 671.597-155.553 662.473-154.767 663.968-160.624Z" stroke="#000000" stroke-width="0.86399" transform="matrix(1 0 0 1.00124 368.456 408.424)"/></g></svg>