<svg width="1243" height="399" xmlns="http://www.w3.org/2000/svg" xmlns:xlink="http://www.w3.org/1999/xlink" xml:space="preserve" overflow="hidden"><g transform="translate(-36 0)"><path d="M499.458-391.646C499.458-391.646 474.352-391.646 474.352-391.646 469.331-391.646 464.31-386.625 464.31-381.604 464.31-381.604 464.31-371.562 464.31-371.562 464.31-366.541 469.331-361.52 474.352-361.52 474.352-361.52 499.458-361.52 499.458-361.52 504.479-361.52 509.5-366.541 509.5-371.562 509.5-371.562 509.5-381.604 509.5-381.604 509.5-386.625 504.479-391.646 499.458-391.646" stroke="#000000" stroke-width="0.836851" fill="#94B5D7" transform="matrix(1 0 0 1.00091 39.3474 395.501)"/><text font-family="Arial,Arial_MSFontService,sans-serif" font-weight="400" font-size="14" transform="matrix(0.836851 0 0 0.837609 520.395 22)">→</text><path d="M314.238-316.33C314.238-308.01 243.923-301.266 157.186-301.266 70.4484-301.266 0.133898-308.01 0.133898-316.33 0.133898-324.649 70.4484-331.393 157.186-331.393 243.923-331.393 314.238-324.649 314.238-316.33Z" stroke="#000000" stroke-width="0.836851" fill="#D3E6EF" transform="matrix(1 0 0 1.00091 39.3474 395.501)"/><text font-family="Arial,Arial_MSFontService,sans-serif" font-weight="400" font-size="14" transform="matrix(0.836851 0 0 0.837609 95.5863 82)">precondition</text><text font-family="Arial,Arial_MSFontService,sans-serif" font-weight="400" font-size="14" transform="matrix(0.836851 0 0 0.837609 159.417 82)">: </text><text font-family="Arial,Arial_MSFontService,sans-serif" font-weight="400" font-size="14" transform="matrix(0.836851 0 0 0.837609 165.928 82)">is</text><text font-family="Arial,Arial_MSFontService,sans-serif" font-weight="400" font-size="14" transform="matrix(0.836851 0 0 0.837609 174.388 82)">_</text><text font-family="Arial,Arial_MSFontService,sans-serif" font-weight="400" font-size="14" transform="matrix(0.836851 0 0 0.837609 180.904 82)">inserted</text><text font-family="Arial,Arial_MSFontService,sans-serif" font-weight="400" font-size="14" transform="matrix(0.836851 0 0 0.837609 222.585 82)">(</text><text font-family="Arial,Arial_MSFontService,sans-serif" font-weight="400" font-size="14" transform="matrix(0.836851 0 0 0.837609 226.487 82)">shatf</text><text font-family="Arial,Arial_MSFontService,sans-serif" font-weight="400" font-size="14" transform="matrix(0.836851 0 0 0.837609 251.886 82)">1</text><text font-family="Arial,Arial_MSFontService,sans-serif" font-weight="400" font-size="14" transform="matrix(0.836851 0 0 0.837609 258.402 82)">, </text><text font-family="Arial,Arial_MSFontService,sans-serif" font-weight="400" font-size="14" transform="matrix(0.836851 0 0 0.837609 264.912 82)">hole</text><text font-family="Arial,Arial_MSFontService,sans-serif" font-weight="400" font-size="14" transform="matrix(0.836851 0 0 0.837609 287.063 82)">1</text><text font-family="Arial,Arial_MSFontService,sans-serif" font-weight="400" font-size="14" transform="matrix(0.836851 0 0 0.837609 293.578 82)">)</text><path d="M464.243-371.721C418.041-363.511 311.007-344.498 236.394-331.234" stroke="#000000" stroke-width="0.836851" fill="none" transform="matrix(1 0 0 1.00091 39.3474 395.501)"/><path d="M236.896-328.355 228.142-329.77 235.866-334.121 236.896-328.355Z" stroke="#000000" stroke-width="0.836851" transform="matrix(1 0 0 1.00091 39.3474 395.501)"/><path d="M644.626-316.33C644.626-308.01 574.012-301.266 486.905-301.266 399.798-301.266 329.184-308.01 329.184-316.33 329.184-324.649 399.798-331.393 486.905-331.393 574.012-331.393 644.626-324.649 644.626-316.33Z" stroke="#000000" stroke-width="0.836851" fill="#D3E6EF" transform="matrix(1 0 0 1.00091 39.3474 395.501)"/><text font-family="Arial,Arial_MSFontService,sans-serif" font-weight="400" font-size="14" transform="matrix(0.836851 0 0 0.837609 424.656 82)">precondition</text><text font-family="Arial,Arial_MSFontService,sans-serif" font-weight="400" font-size="14" transform="matrix(0.836851 0 0 0.837609 488.488 82)">: </text><text font-family="Arial,Arial_MSFontService,sans-serif" font-weight="400" font-size="14" transform="matrix(0.836851 0 0 0.837609 494.998 82)">is</text><text font-family="Arial,Arial_MSFontService,sans-serif" font-weight="400" font-size="14" transform="matrix(0.836851 0 0 0.837609 503.458 82)">_</text><text font-family="Arial,Arial_MSFontService,sans-serif" font-weight="400" font-size="14" transform="matrix(0.836851 0 0 0.837609 509.974 82)">inserted</text><text font-family="Arial,Arial_MSFontService,sans-serif" font-weight="400" font-size="14" transform="matrix(0.836851 0 0 0.837609 551.655 82)">(</text><text font-family="Arial,Arial_MSFontService,sans-serif" font-weight="400" font-size="14" transform="matrix(0.836851 0 0 0.837609 555.557 82)">gear</text><text font-family="Arial,Arial_MSFontService,sans-serif" font-weight="400" font-size="14" transform="matrix(0.836851 0 0 0.837609 579.006 82)">1</text><text font-family="Arial,Arial_MSFontService,sans-serif" font-weight="400" font-size="14" transform="matrix(0.836851 0 0 0.837609 585.521 82)">, </text><text font-family="Arial,Arial_MSFontService,sans-serif" font-weight="400" font-size="14" transform="matrix(0.836851 0 0 0.837609 592.031 82)">shaft</text><text font-family="Arial,Arial_MSFontService,sans-serif" font-weight="400" font-size="14" transform="matrix(0.836851 0 0 0.837609 617.431 82)">1</text><text font-family="Arial,Arial_MSFontService,sans-serif" font-weight="400" font-size="14" transform="matrix(0.836851 0 0 0.837609 623.947 82)">)</text><path d="M486.905-361.269C486.905-354.808 486.905-347.051 486.905-339.854" stroke="#000000" stroke-width="0.836851" fill="none" transform="matrix(1 0 0 1.00091 39.3474 395.501)"/><path d="M489.834-339.845 486.905-331.477 483.976-339.845 489.834-339.845Z" stroke="#000000" stroke-width="0.836851" transform="matrix(1 0 0 1.00091 39.3474 395.501)"/><path d="M694.444-331.393C694.444-331.393 669.339-331.393 669.339-331.393 664.318-331.393 659.296-326.372 659.296-321.351 659.296-321.351 659.296-311.309 659.296-311.309 659.296-306.287 664.318-301.266 669.339-301.266 669.339-301.266 694.444-301.266 694.444-301.266 699.465-301.266 704.486-306.287 704.486-311.309 704.486-311.309 704.486-321.351 704.486-321.351 704.486-326.372 699.465-331.393 694.444-331.393" stroke="#000000" stroke-width="0.836851" fill="#F4B183" transform="matrix(1 0 0 1.00091 39.3474 395.501)"/><text font-family="Arial,Arial_MSFontService,sans-serif" font-weight="400" font-size="14" transform="matrix(0.836851 0 0 0.837609 717.981 82)">?</text><path d="M509.659-368.909C544.656-358.398 611.788-338.23 651.112-326.414" stroke="#000000" stroke-width="0.836851" fill="none" transform="matrix(1 0 0 1.00091 39.3474 395.501)"/><path d="M652.116-329.167 659.288-323.953 650.434-323.56 652.116-329.167Z" stroke="#000000" stroke-width="0.836851" transform="matrix(1 0 0 1.00091 39.3474 395.501)"/><path d="M756.17-256.076C756.17-247.757 673.083-241.013 570.59-241.013 468.097-241.013 385.01-247.757 385.01-256.076 385.01-264.396 468.097-271.14 570.59-271.14 673.083-271.14 756.17-264.396 756.17-256.076Z" stroke="#000000" stroke-width="0.836851" fill="#D3E6EF" transform="matrix(1 0 0 1.00091 39.3474 395.501)"/><text font-family="Arial,Arial_MSFontService,sans-serif" font-weight="400" font-size="14" transform="matrix(0.836851 0 0 0.837609 487.813 142)">target</text><text font-family="Arial,Arial_MSFontService,sans-serif" font-weight="400" font-size="14" transform="matrix(0.836851 0 0 0.837609 517.772 142)">: </text><text font-family="Arial,Arial_MSFontService,sans-serif" font-weight="400" font-size="14" transform="matrix(0.836851 0 0 0.837609 524.282 142)">is</text><text font-family="Arial,Arial_MSFontService,sans-serif" font-weight="400" font-size="14" transform="matrix(0.836851 0 0 0.837609 532.743 142)">_</text><text font-family="Arial,Arial_MSFontService,sans-serif" font-weight="400" font-size="14" transform="matrix(0.836851 0 0 0.837609 539.259 142)">engaged</text><text font-family="Arial,Arial_MSFontService,sans-serif" font-weight="400" font-size="14" transform="matrix(0.836851 0 0 0.837609 584.87 142)">_</text><text font-family="Arial,Arial_MSFontService,sans-serif" font-weight="400" font-size="14" transform="matrix(0.836851 0 0 0.837609 591.385 142)">to</text><text font-family="Arial,Arial_MSFontService,sans-serif" font-weight="400" font-size="14" transform="matrix(0.836851 0 0 0.837609 601.156 142)">(</text><text font-family="Arial,Arial_MSFontService,sans-serif" font-weight="400" font-size="14" transform="matrix(0.836851 0 0 0.837609 605.058 142)">compound</text><text font-family="Arial,Arial_MSFontService,sans-serif" font-weight="400" font-size="14" transform="matrix(0.836851 0 0 0.837609 659.77 142)">_</text><text font-family="Arial,Arial_MSFontService,sans-serif" font-weight="400" font-size="14" transform="matrix(0.836851 0 0 0.837609 666.286 142)">gear</text><text font-family="Arial,Arial_MSFontService,sans-serif" font-weight="400" font-size="14" transform="matrix(0.836851 0 0 0.837609 689.735 142)">, </text><text font-family="Arial,Arial_MSFontService,sans-serif" font-weight="400" font-size="14" transform="matrix(0.836851 0 0 0.837609 696.245 142)">shaft</text><text font-family="Arial,Arial_MSFontService,sans-serif" font-weight="400" font-size="14" transform="matrix(0.836851 0 0 0.837609 721.645 142)">2</text><text font-family="Arial,Arial_MSFontService,sans-serif" font-weight="400" font-size="14" transform="matrix(0.836851 0 0 0.837609 728.161 142)">)</text><path d="M659.104-303.501C643.589-295.333 622.768-284.379 605.219-275.14" stroke="#000000" stroke-width="0.836851" fill="none" transform="matrix(1 0 0 1.00091 39.3474 395.501)"/><path d="M606.441-272.47 597.671-271.165 603.713-277.659 606.441-272.47Z" stroke="#000000" stroke-width="0.836851" transform="matrix(1 0 0 1.00091 39.3474 395.501)"/><path d="M806.582-271.14C806.582-271.14 781.477-271.14 781.477-271.14 776.456-271.14 771.434-266.119 771.434-261.098 771.434-261.098 771.434-251.055 771.434-251.055 771.434-246.034 776.456-241.013 781.477-241.013 781.477-241.013 806.582-241.013 806.582-241.013 811.603-241.013 816.624-246.034 816.624-251.055 816.624-251.055 816.624-261.098 816.624-261.098 816.624-266.119 811.603-271.14 806.582-271.14" stroke="#000000" stroke-width="0.836851" fill="#94B5D7" transform="matrix(1 0 0 1.00091 39.3474 395.501)"/><text font-family="Arial,Arial_MSFontService,sans-serif" font-weight="400" font-size="14" transform="matrix(0.836851 0 0 0.837609 827.519 142)">→</text><path d="M704.587-303.635C721.608-294.747 745.09-282.479 763.719-272.747" stroke="#000000" stroke-width="0.836851" fill="none" transform="matrix(1 0 0 1.00091 39.3474 395.501)"/><path d="M765.309-275.224 771.376-268.746 762.597-270.027 765.309-275.224Z" stroke="#000000" stroke-width="0.836851" transform="matrix(1 0 0 1.00091 39.3474 395.501)"/><path d="M616.617-210.886C616.617-210.886 591.511-210.886 591.511-210.886 586.49-210.886 581.469-205.865 581.469-200.844 581.469-200.844 581.469-190.802 581.469-190.802 581.469-185.781 586.49-180.76 591.511-180.76 591.511-180.76 616.617-180.76 616.617-180.76 621.638-180.76 626.659-185.781 626.659-190.802 626.659-190.802 626.659-200.844 626.659-200.844 626.659-205.865 621.638-210.886 616.617-210.886" stroke="#000000" stroke-width="0.836851" fill="#F4B183" transform="matrix(1 0 0 1.00091 39.3474 395.501)"/><text font-family="Arial,Arial_MSFontService,sans-serif" font-weight="400" font-size="14" transform="matrix(0.836851 0 0 0.837609 640.154 203)">?</text><path d="M771.116-248.177C737.082-237.674 673.096-217.941 634.952-206.183" stroke="#000000" stroke-width="0.836851" fill="none" transform="matrix(1 0 0 1.00091 39.3474 395.501)"/><path d="M635.63-203.33 626.768-203.656 633.898-208.928 635.63-203.33Z" stroke="#000000" stroke-width="0.836851" transform="matrix(1 0 0 1.00091 39.3474 395.501)"/><path d="M776.456-210.886C776.456-210.886 751.35-210.886 751.35-210.886 746.329-210.886 741.308-205.865 741.308-200.844 741.308-200.844 741.308-190.802 741.308-190.802 741.308-185.781 746.329-180.76 751.35-180.76 751.35-180.76 776.456-180.76 776.456-180.76 781.477-180.76 786.498-185.781 786.498-190.802 786.498-190.802 786.498-200.844 786.498-200.844 786.498-205.865 781.477-210.886 776.456-210.886" stroke="#000000" stroke-width="0.836851" fill="#F4B183" transform="matrix(1 0 0 1.00091 39.3474 395.501)"/><text font-family="Arial,Arial_MSFontService,sans-serif" font-weight="400" font-size="14" transform="matrix(0.836851 0 0 0.837609 799.992 203)">?</text><path d="M786.581-240.762C783.159-234.092 779.008-226.033 775.209-218.636" stroke="#000000" stroke-width="0.836851" fill="none" transform="matrix(1 0 0 1.00091 39.3474 395.501)"/><path d="M777.702-217.079 771.267-210.97 772.489-219.757 777.702-217.079Z" stroke="#000000" stroke-width="0.836851" transform="matrix(1 0 0 1.00091 39.3474 395.501)"/><text font-family="Arial,Arial_MSFontService,sans-serif" font-weight="400" font-size="25" transform="matrix(0.836851 0 0 0.837609 854.785 205)">...</text><path d="M1226.26-210.886C1226.26-210.886 872.275-210.886 872.275-210.886 867.254-210.886 862.233-205.865 862.233-200.844 862.233-200.844 862.233-190.802 862.233-190.802 862.233-185.781 867.254-180.76 872.275-180.76 872.275-180.76 1226.26-180.76 1226.26-180.76 1231.28-180.76 1236.31-185.781 1236.31-190.802 1236.31-190.802 1236.31-200.844 1236.31-200.844 1236.31-205.865 1231.28-210.886 1226.26-210.886" stroke="#000000" stroke-width="0.836851" fill="#FFEFBE" transform="matrix(1 0 0 1.00091 39.3474 395.501)"/><text font-family="Arial,Arial_MSFontService,sans-serif" font-weight="400" font-size="14" transform="matrix(0.836851 0 0 0.837609 929.365 203)">action</text><text font-family="Arial,Arial_MSFontService,sans-serif" font-weight="400" font-size="14" transform="matrix(0.836851 0 0 0.837609 960.628 203)">: </text><text font-family="Arial,Arial_MSFontService,sans-serif" font-weight="400" font-size="14" transform="matrix(0.836851 0 0 0.837609 967.138 203)">engage</text><text font-family="Arial,Arial_MSFontService,sans-serif" font-weight="400" font-size="14" transform="matrix(0.836851 0 0 0.837609 1006.23 203)">(</text><text font-family="Arial,Arial_MSFontService,sans-serif" font-weight="400" font-size="14" transform="matrix(0.836851 0 0 0.837609 1010.13 203)">hand</text><text font-family="Arial,Arial_MSFontService,sans-serif" font-weight="400" font-size="14" transform="matrix(0.836851 0 0 0.837609 1036.2 203)">, </text><text font-family="Arial,Arial_MSFontService,sans-serif" font-weight="400" font-size="14" transform="matrix(0.836851 0 0 0.837609 1042.71 203)">defaultgripper</text><text font-family="Arial,Arial_MSFontService,sans-serif" font-weight="400" font-size="14" transform="matrix(0.836851 0 0 0.837609 1114.35 203)">, </text><text font-family="Arial,Arial_MSFontService,sans-serif" font-weight="400" font-size="14" transform="matrix(0.836851 0 0 0.837609 1120.86 203)">compound</text><text font-family="Arial,Arial_MSFontService,sans-serif" font-weight="400" font-size="14" transform="matrix(0.836851 0 0 0.837609 1175.58 203)">_</text><text font-family="Arial,Arial_MSFontService,sans-serif" font-weight="400" font-size="14" transform="matrix(0.836851 0 0 0.837609 1182.09 203)">gear</text><text font-family="Arial,Arial_MSFontService,sans-serif" font-weight="400" font-size="14" transform="matrix(0.836851 0 0 0.837609 1205.54 203)">, </text><text font-family="Arial,Arial_MSFontService,sans-serif" font-weight="400" font-size="14" transform="matrix(0.836851 0 0 0.837609 1212.05 203)">shaft</text><text font-family="Arial,Arial_MSFontService,sans-serif" font-weight="400" font-size="14" transform="matrix(0.836851 0 0 0.837609 1237.45 203)">2</text><text font-family="Arial,Arial_MSFontService,sans-serif" font-weight="400" font-size="14" transform="matrix(0.836851 0 0 0.837609 1243.97 203)">)</text><path d="M816.683-250.043C852.718-241.775 924.57-225.28 978.932-212.803" stroke="#000000" stroke-width="0.836851" fill="none" transform="matrix(1 0 0 1.00091 39.3474 395.501)"/><path d="M979.651-215.64 987.158-210.92 978.346-209.932 979.651-215.64Z" stroke="#000000" stroke-width="0.836851" transform="matrix(1 0 0 1.00091 39.3474 395.501)"/><path d="M566.707-135.57C566.707-127.251 486.767-120.507 388.157-120.507 289.546-120.507 209.606-127.251 209.606-135.57 209.606-143.889 289.546-150.633 388.157-150.633 486.767-150.633 566.707-143.889 566.707-135.57Z" stroke="#000000" stroke-width="0.836851" fill="#D3E6EF" transform="matrix(1 0 0 1.00091 39.3474 395.501)"/><text font-family="Arial,Arial_MSFontService,sans-serif" font-weight="400" font-size="14" transform="matrix(0.836851 0 0 0.837609 312.876 263)">target</text><text font-family="Arial,Arial_MSFontService,sans-serif" font-weight="400" font-size="14" transform="matrix(0.836851 0 0 0.837609 342.835 263)">: </text><text font-family="Arial,Arial_MSFontService,sans-serif" font-weight="400" font-size="14" transform="matrix(0.836851 0 0 0.837609 349.345 263)">hold</text><text font-family="Arial,Arial_MSFontService,sans-serif" font-weight="400" font-size="14" transform="matrix(0.836851 0 0 0.837609 371.496 263)">(</text><text font-family="Arial,Arial_MSFontService,sans-serif" font-weight="400" font-size="14" transform="matrix(0.836851 0 0 0.837609 375.397 263)">defaultgripper</text><text font-family="Arial,Arial_MSFontService,sans-serif" font-weight="400" font-size="14" transform="matrix(0.836851 0 0 0.837609 447.043 263)">, </text><text font-family="Arial,Arial_MSFontService,sans-serif" font-weight="400" font-size="14" transform="matrix(0.836851 0 0 0.837609 453.553 263)">compound</text><text font-family="Arial,Arial_MSFontService,sans-serif" font-weight="400" font-size="14" transform="matrix(0.836851 0 0 0.837609 508.265 263)">_</text><text font-family="Arial,Arial_MSFontService,sans-serif" font-weight="400" font-size="14" transform="matrix(0.836851 0 0 0.837609 514.781 263)">gear</text><text font-family="Arial,Arial_MSFontService,sans-serif" font-weight="400" font-size="14" transform="matrix(0.836851 0 0 0.837609 538.23 263)">)</text><path d="M581.369-188.827C549.669-180.224 491.047-164.324 446.652-152.282" stroke="#000000" stroke-width="0.836851" fill="none" transform="matrix(1 0 0 1.00091 39.3474 395.501)"/><path d="M447.389-149.445 438.543-150.073 445.849-155.094 447.389-149.445Z" stroke="#000000" stroke-width="0.836851" transform="matrix(1 0 0 1.00091 39.3474 395.501)"/><path d="M616.617-150.633C616.617-150.633 591.511-150.633 591.511-150.633 586.49-150.633 581.469-145.612 581.469-140.591 581.469-140.591 581.469-130.549 581.469-130.549 581.469-125.528 586.49-120.507 591.511-120.507 591.511-120.507 616.617-120.507 616.617-120.507 621.638-120.507 626.659-125.528 626.659-130.549 626.659-130.549 626.659-140.591 626.659-140.591 626.659-145.612 621.638-150.633 616.617-150.633" stroke="#000000" stroke-width="0.836851" fill="#94B5D7" transform="matrix(1 0 0 1.00091 39.3474 395.501)"/><text font-family="Arial,Arial_MSFontService,sans-serif" font-weight="400" font-size="14" transform="matrix(0.836851 0 0 0.837609 637.554 263)">→</text><path d="M604.064-180.509C604.064-174.048 604.064-166.291 604.064-159.094" stroke="#000000" stroke-width="0.836851" fill="none" transform="matrix(1 0 0 1.00091 39.3474 395.501)"/><path d="M606.993-159.085 604.064-150.717 601.135-159.085 606.993-159.085Z" stroke="#000000" stroke-width="0.836851" transform="matrix(1 0 0 1.00091 39.3474 395.501)"/><path d="M556.364-90.3799C556.364-90.3799 531.258-90.3799 531.258-90.3799 526.237-90.3799 521.216-85.3588 521.216-80.3377 521.216-80.3377 521.216-70.2955 521.216-70.2955 521.216-65.2744 526.237-60.2533 531.258-60.2533 531.258-60.2533 556.364-60.2533 556.364-60.2533 561.385-60.2533 566.406-65.2744 566.406-70.2955 566.406-70.2955 566.406-80.3377 566.406-80.3377 566.406-85.3588 561.385-90.3799 556.364-90.3799" stroke="#000000" stroke-width="0.836851" fill="#F4B183" transform="matrix(1 0 0 1.00091 39.3474 395.501)"/><text font-family="Arial,Arial_MSFontService,sans-serif" font-weight="400" font-size="14" transform="matrix(0.836851 0 0 0.837609 579.9 323)">?</text><path d="M589.177-120.255C581.804-113.092 572.783-104.322 564.732-96.4889" stroke="#000000" stroke-width="0.836851" fill="none" transform="matrix(1 0 0 1.00091 39.3474 395.501)"/><path d="M566.582-94.2043 558.539-90.4636 562.498-98.3969 566.582-94.2043Z" stroke="#000000" stroke-width="0.836851" transform="matrix(1 0 0 1.00091 39.3474 395.501)"/><text font-family="Arial,Arial_MSFontService,sans-serif" font-weight="400" font-size="25" transform="matrix(0.836851 0 0 0.837609 634.693 325)">...</text><path d="M963.073-90.3799C963.073-90.3799 651.765-90.3799 651.765-90.3799 646.744-90.3799 641.723-85.3588 641.723-80.3377 641.723-80.3377 641.723-70.2955 641.723-70.2955 641.723-65.2744 646.744-60.2533 651.765-60.2533 651.765-60.2533 963.073-60.2533 963.073-60.2533 968.094-60.2533 973.115-65.2744 973.115-70.2955 973.115-70.2955 973.115-80.3377 973.115-80.3377 973.115-85.3588 968.094-90.3799 963.073-90.3799" stroke="#000000" stroke-width="0.836851" fill="#FFEFBE" transform="matrix(1 0 0 1.00091 39.3474 395.501)"/><text font-family="Arial,Arial_MSFontService,sans-serif" font-weight="400" font-size="14" transform="matrix(0.836851 0 0 0.837609 706.084 323)">action</text><text font-family="Arial,Arial_MSFontService,sans-serif" font-weight="400" font-size="14" transform="matrix(0.836851 0 0 0.837609 737.347 323)">: </text><text font-family="Arial,Arial_MSFontService,sans-serif" font-weight="400" font-size="14" transform="matrix(0.836851 0 0 0.837609 743.857 323)">pick</text><text font-family="Arial,Arial_MSFontService,sans-serif" font-weight="400" font-size="14" transform="matrix(0.836851 0 0 0.837609 764.692 323)">_</text><text font-family="Arial,Arial_MSFontService,sans-serif" font-weight="400" font-size="14" transform="matrix(0.836851 0 0 0.837609 771.208 323)">up</text><text font-family="Arial,Arial_MSFontService,sans-serif" font-weight="400" font-size="14" transform="matrix(0.836851 0 0 0.837609 784.24 323)">(</text><text font-family="Arial,Arial_MSFontService,sans-serif" font-weight="400" font-size="14" transform="matrix(0.836851 0 0 0.837609 788.141 323)">hand</text><text font-family="Arial,Arial_MSFontService,sans-serif" font-weight="400" font-size="14" transform="matrix(0.836851 0 0 0.837609 814.204 323)">, </text><text font-family="Arial,Arial_MSFontService,sans-serif" font-weight="400" font-size="14" transform="matrix(0.836851 0 0 0.837609 820.715 323)">defaultgripper</text><text font-family="Arial,Arial_MSFontService,sans-serif" font-weight="400" font-size="14" transform="matrix(0.836851 0 0 0.837609 892.36 323)">, </text><text font-family="Arial,Arial_MSFontService,sans-serif" font-weight="400" font-size="14" transform="matrix(0.836851 0 0 0.837609 898.87 323)">compound</text><text font-family="Arial,Arial_MSFontService,sans-serif" font-weight="400" font-size="14" transform="matrix(0.836851 0 0 0.837609 953.583 323)">_</text><text font-family="Arial,Arial_MSFontService,sans-serif" font-weight="400" font-size="14" transform="matrix(0.836851 0 0 0.837609 960.098 323)">gear</text><text font-family="Arial,Arial_MSFontService,sans-serif" font-weight="400" font-size="14" transform="matrix(0.836851 0 0 0.837609 983.547 323)">)</text><path d="M627.002-128.13C656.543-119.619 708.93-104.523 749.676-92.79" stroke="#000000" stroke-width="0.836851" fill="none" transform="matrix(1 0 0 1.00091 39.3474 395.501)"/><path d="M750.689-95.5433 757.919-90.4134 749.065-89.9113 750.689-95.5433Z" stroke="#000000" stroke-width="0.836851" transform="matrix(1 0 0 1.00091 39.3474 395.501)"/><path d="M555.836-15.0633C555.836-6.74408 484.51 2.97309e-15 396.525 2.97309e-15 308.54 5.94618e-15 237.214-6.74408 237.214-15.0633 237.214-23.3826 308.54-30.1266 396.525-30.1266 484.51-30.1266 555.836-23.3826 555.836-15.0633Z" stroke="#000000" stroke-width="0.836851" fill="#D3E6EF" transform="matrix(1 0 0 1.00091 39.3474 395.501)"/><text font-family="Arial,Arial_MSFontService,sans-serif" font-weight="400" font-size="14" transform="matrix(0.836851 0 0 0.837609 331.016 384)">target</text><text font-family="Arial,Arial_MSFontService,sans-serif" font-weight="400" font-size="14" transform="matrix(0.836851 0 0 0.837609 360.975 384)">: </text><text font-family="Arial,Arial_MSFontService,sans-serif" font-weight="400" font-size="14" transform="matrix(0.836851 0 0 0.837609 367.485 384)">pose</text><text font-family="Arial,Arial_MSFontService,sans-serif" font-weight="400" font-size="14" transform="matrix(0.836851 0 0 0.837609 392.89 384)">_</text><text font-family="Arial,Arial_MSFontService,sans-serif" font-weight="400" font-size="14" transform="matrix(0.836851 0 0 0.837609 399.406 384)">is</text><text font-family="Arial,Arial_MSFontService,sans-serif" font-weight="400" font-size="14" transform="matrix(0.836851 0 0 0.837609 407.867 384)">_</text><text font-family="Arial,Arial_MSFontService,sans-serif" font-weight="400" font-size="14" transform="matrix(0.836851 0 0 0.837609 414.383 384)">known</text><text font-family="Arial,Arial_MSFontService,sans-serif" font-weight="400" font-size="14" transform="matrix(0.836851 0 0 0.837609 448.249 384)">(</text><text font-family="Arial,Arial_MSFontService,sans-serif" font-weight="400" font-size="14" transform="matrix(0.836851 0 0 0.837609 452.151 384)">compound</text><text font-family="Arial,Arial_MSFontService,sans-serif" font-weight="400" font-size="14" transform="matrix(0.836851 0 0 0.837609 506.863 384)">_</text><text font-family="Arial,Arial_MSFontService,sans-serif" font-weight="400" font-size="14" transform="matrix(0.836851 0 0 0.837609 513.379 384)">gear</text><text font-family="Arial,Arial_MSFontService,sans-serif" font-weight="400" font-size="14" transform="matrix(0.836851 0 0 0.837609 536.828 384)">)</text><path d="M521.124-65.4585C499.475-56.8473 466.31-43.6585 439.64-33.0472" stroke="#000000" stroke-width="0.836851" fill="none" transform="matrix(1 0 0 1.00091 39.3474 395.501)"/><path d="M440.451-30.2187 431.589-29.8421 438.284-35.6582 440.451-30.2187Z" stroke="#000000" stroke-width="0.836851" transform="matrix(1 0 0 1.00091 39.3474 395.501)"/><path d="M803.235-30.1266C803.235-30.1266 580.632-30.1266 580.632-30.1266 575.611-30.1266 570.59-25.1055 570.59-20.0844 570.59-20.0844 570.59-10.0422 570.59-10.0422 570.59-5.02111 575.611 0 580.632 0 580.632 0 803.235 0 803.235 0 808.256 0 813.277-5.02111 813.277-10.0422 813.277-10.0422 813.277-20.0844 813.277-20.0844 813.277-25.1055 808.256-30.1266 803.235-30.1266" stroke="#000000" stroke-width="0.836851" fill="#FFEFBE" transform="matrix(1 0 0 1.00091 39.3474 395.501)"/><text font-family="Arial,Arial_MSFontService,sans-serif" font-weight="400" font-size="14" transform="matrix(0.836851 0 0 0.837609 628.055 384)">action</text><text font-family="Arial,Arial_MSFontService,sans-serif" font-weight="400" font-size="14" transform="matrix(0.836851 0 0 0.837609 659.318 384)">: </text><text font-family="Arial,Arial_MSFontService,sans-serif" font-weight="400" font-size="14" transform="matrix(0.836851 0 0 0.837609 665.828 384)">estimate</text><text font-family="Arial,Arial_MSFontService,sans-serif" font-weight="400" font-size="14" transform="matrix(0.836851 0 0 0.837609 710.106 384)">_</text><text font-family="Arial,Arial_MSFontService,sans-serif" font-weight="400" font-size="14" transform="matrix(0.836851 0 0 0.837609 716.622 384)">pose</text><text font-family="Arial,Arial_MSFontService,sans-serif" font-weight="400" font-size="14" transform="matrix(0.836851 0 0 0.837609 742.027 384)">(</text><text font-family="Arial,Arial_MSFontService,sans-serif" font-weight="400" font-size="14" transform="matrix(0.836851 0 0 0.837609 745.929 384)">compound</text><text font-family="Arial,Arial_MSFontService,sans-serif" font-weight="400" font-size="14" transform="matrix(0.836851 0 0 0.837609 800.641 384)">_</text><text font-family="Arial,Arial_MSFontService,sans-serif" font-weight="400" font-size="14" transform="matrix(0.836851 0 0 0.837609 807.157 384)">gear</text><text font-family="Arial,Arial_MSFontService,sans-serif" font-weight="400" font-size="14" transform="matrix(0.836851 0 0 0.837609 830.606 384)">)</text><path d="M566.632-65.4585C588.181-56.931 621.077-43.9179 647.765-33.3736" stroke="#000000" stroke-width="0.836851" fill="none" transform="matrix(1 0 0 1.00091 39.3474 395.501)"/><path d="M649.12-35.9846 655.823-30.1852 646.961-30.5367 649.12-35.9846Z" stroke="#000000" stroke-width="0.836851" transform="matrix(1 0 0 1.00091 39.3474 395.501)"/><path d="M885.807-135.57C885.807-127.251 831.229-120.507 763.903-120.507 696.577-120.507 641.999-127.251 641.999-135.57 641.999-143.889 696.577-150.633 763.903-150.633 831.229-150.633 885.807-143.889 885.807-135.57Z" stroke="#000000" stroke-width="0.836851" fill="#D3E6EF" transform="matrix(1 0 0 1.00091 39.3474 395.501)"/><text font-family="Arial,Arial_MSFontService,sans-serif" font-weight="400" font-size="14" transform="matrix(0.836851 0 0 0.837609 724.774 263)">target</text><text font-family="Arial,Arial_MSFontService,sans-serif" font-weight="400" font-size="14" transform="matrix(0.836851 0 0 0.837609 754.733 263)">: </text><text font-family="Arial,Arial_MSFontService,sans-serif" font-weight="400" font-size="14" transform="matrix(0.836851 0 0 0.837609 761.243 263)">pose</text><text font-family="Arial,Arial_MSFontService,sans-serif" font-weight="400" font-size="14" transform="matrix(0.836851 0 0 0.837609 786.649 263)">_</text><text font-family="Arial,Arial_MSFontService,sans-serif" font-weight="400" font-size="14" transform="matrix(0.836851 0 0 0.837609 793.165 263)">is</text><text font-family="Arial,Arial_MSFontService,sans-serif" font-weight="400" font-size="14" transform="matrix(0.836851 0 0 0.837609 801.625 263)">_</text><text font-family="Arial,Arial_MSFontService,sans-serif" font-weight="400" font-size="14" transform="matrix(0.836851 0 0 0.837609 808.141 263)">known</text><text font-family="Arial,Arial_MSFontService,sans-serif" font-weight="400" font-size="14" transform="matrix(0.836851 0 0 0.837609 842.008 263)">(</text><text font-family="Arial,Arial_MSFontService,sans-serif" font-weight="400" font-size="14" transform="matrix(0.836851 0 0 0.837609 845.909 263)">shaft</text><text font-family="Arial,Arial_MSFontService,sans-serif" font-weight="400" font-size="14" transform="matrix(0.836851 0 0 0.837609 871.309 263)">2</text><text font-family="Arial,Arial_MSFontService,sans-serif" font-weight="400" font-size="14" transform="matrix(0.836851 0 0 0.837609 877.825 263)">)</text><path d="M763.903-180.509C763.903-174.048 763.903-166.291 763.903-159.094" stroke="#000000" stroke-width="0.836851" fill="none" transform="matrix(1 0 0 1.00091 39.3474 395.501)"/><path d="M766.832-159.085 763.903-150.717 760.974-159.085 766.832-159.085Z" stroke="#000000" stroke-width="0.836851" transform="matrix(1 0 0 1.00091 39.3474 395.501)"/><path d="M1075.63-150.633C1075.63-150.633 910.77-150.633 910.77-150.633 905.749-150.633 900.728-145.612 900.728-140.591 900.728-140.591 900.728-130.549 900.728-130.549 900.728-125.528 905.749-120.507 910.77-120.507 910.77-120.507 1075.63-120.507 1075.63-120.507 1080.65-120.507 1085.67-125.528 1085.67-130.549 1085.67-130.549 1085.67-140.591 1085.67-140.591 1085.67-145.612 1080.65-150.633 1075.63-150.633" stroke="#000000" stroke-width="0.836851" fill="#FFEFBE" transform="matrix(1 0 0 1.00091 39.3474 395.501)"/><text font-family="Arial,Arial_MSFontService,sans-serif" font-weight="400" font-size="14" transform="matrix(0.836851 0 0 0.837609 955.702 263)">action</text><text font-family="Arial,Arial_MSFontService,sans-serif" font-weight="400" font-size="14" transform="matrix(0.836851 0 0 0.837609 986.965 263)">: </text><text font-family="Arial,Arial_MSFontService,sans-serif" font-weight="400" font-size="14" transform="matrix(0.836851 0 0 0.837609 993.475 263)">estimate</text><text font-family="Arial,Arial_MSFontService,sans-serif" font-weight="400" font-size="14" transform="matrix(0.836851 0 0 0.837609 1037.75 263)">_</text><text font-family="Arial,Arial_MSFontService,sans-serif" font-weight="400" font-size="14" transform="matrix(0.836851 0 0 0.837609 1044.27 263)">pose</text><text font-family="Arial,Arial_MSFontService,sans-serif" font-weight="400" font-size="14" transform="matrix(0.836851 0 0 0.837609 1069.67 263)">(</text><text font-family="Arial,Arial_MSFontService,sans-serif" font-weight="400" font-size="14" transform="matrix(0.836851 0 0 0.837609 1073.58 263)">shaft</text><text font-family="Arial,Arial_MSFontService,sans-serif" font-weight="400" font-size="14" transform="matrix(0.836851 0 0 0.837609 1098.98 263)">2</text><text font-family="Arial,Arial_MSFontService,sans-serif" font-weight="400" font-size="14" transform="matrix(0.836851 0 0 0.837609 1105.49 263)">)</text><path d="M786.732-189.153C819.587-180.76 881.489-164.943 928.98-152.817" stroke="#000000" stroke-width="0.836851" fill="none" transform="matrix(1 0 0 1.00091 39.3474 395.501)"/><path d="M929.984-155.579 937.365-150.667 928.536-149.905 929.984-155.579Z" stroke="#000000" stroke-width="0.836851" transform="matrix(1 0 0 1.00091 39.3474 395.501)"/></g></svg>