<svg width="1473" height="343" xmlns="http://www.w3.org/2000/svg" xmlns:xlink="http://www.w3.org/1999/xlink" xml:space="preserve" overflow="hidden"><g transform="translate(193 0)"><path d="M588.983-336.631C588.983-336.631 567.404-336.631 567.404-336.631 563.088-336.631 558.772-332.316 558.772-328 558.772-328 558.772-319.368 558.772-319.368 558.772-315.053 563.088-310.737 567.404-310.737 567.404-310.737 588.983-310.737 588.983-310.737 593.299-310.737 597.614-315.053 597.614-319.368 597.614-319.368 597.614-328 597.614-328 597.614-332.316 593.299-336.631 588.983-336.631" stroke="#000000" stroke-width="0.719298" fill="#94B5D7" transform="matrix(1 0 0 1.00147 -190.123 340.064)"/><text font-family="Arial,Arial_MSFontService,sans-serif" font-weight="400" font-size="14" transform="matrix(0.719298 0 0 0.720358 383.035 19)">→</text><path d="M270.096-271.895C270.096-264.744 209.659-258.947 135.106-258.947 60.5525-258.947 0.115089-264.744 0.115089-271.895 0.115089-279.045 60.5525-284.842 135.106-284.842 209.659-284.842 270.096-279.045 270.096-271.895Z" stroke="#000000" stroke-width="0.719298" fill="#D3E6EF" transform="matrix(1 0 0 1.00147 -190.123 340.064)"/><text font-family="Arial,Arial_MSFontService,sans-serif" font-weight="400" font-size="14" transform="matrix(0.719298 0 0 0.720358 -141.784 70)">precondition</text><text font-family="Arial,Arial_MSFontService,sans-serif" font-weight="400" font-size="14" transform="matrix(0.719298 0 0 0.720358 -86.9191 70)">: </text><text font-family="Arial,Arial_MSFontService,sans-serif" font-weight="400" font-size="14" transform="matrix(0.719298 0 0 0.720358 -81.3234 70)">is</text><text font-family="Arial,Arial_MSFontService,sans-serif" font-weight="400" font-size="14" transform="matrix(0.719298 0 0 0.720358 -74.0511 70)">_</text><text font-family="Arial,Arial_MSFontService,sans-serif" font-weight="400" font-size="14" transform="matrix(0.719298 0 0 0.720358 -68.4505 70)">inserted</text><text font-family="Arial,Arial_MSFontService,sans-serif" font-weight="400" font-size="14" transform="matrix(0.719298 0 0 0.720358 -32.6247 70)">(</text><text font-family="Arial,Arial_MSFontService,sans-serif" font-weight="400" font-size="14" transform="matrix(0.719298 0 0 0.720358 -29.2713 70)">shatf</text><text font-family="Arial,Arial_MSFontService,sans-serif" font-weight="400" font-size="14" transform="matrix(0.719298 0 0 0.720358 -7.43944 70)">1</text><text font-family="Arial,Arial_MSFontService,sans-serif" font-weight="400" font-size="14" transform="matrix(0.719298 0 0 0.720358 -1.83889 70)">, </text><text font-family="Arial,Arial_MSFontService,sans-serif" font-weight="400" font-size="14" transform="matrix(0.719298 0 0 0.720358 3.75674 70)">hole</text><text font-family="Arial,Arial_MSFontService,sans-serif" font-weight="400" font-size="14" transform="matrix(0.719298 0 0 0.720358 22.7957 70)">1</text><text font-family="Arial,Arial_MSFontService,sans-serif" font-weight="400" font-size="14" transform="matrix(0.719298 0 0 0.720358 28.3962 70)">)</text><path d="M558.585-320.735C501.408-314.24 332.193-295.013 225.773-282.914" stroke="#000000" stroke-width="0.719298" fill="none" transform="matrix(1 0 0 1.00147 -190.123 340.064)"/><path d="M225.975-280.404 218.544-282.094 225.406-285.41 225.975-280.404Z" stroke="#000000" stroke-width="0.719298" transform="matrix(1 0 0 1.00147 -190.123 340.064)"/><path d="M554.075-271.895C554.075-264.744 493.38-258.947 418.509-258.947 343.638-258.947 282.943-264.744 282.943-271.895 282.943-279.045 343.638-284.842 418.509-284.842 493.38-284.842 554.075-279.045 554.075-271.895Z" stroke="#000000" stroke-width="0.719298" fill="#D3E6EF" transform="matrix(1 0 0 1.00147 -190.123 340.064)"/><text font-family="Arial,Arial_MSFontService,sans-serif" font-weight="400" font-size="14" transform="matrix(0.719298 0 0 0.720358 141.062 70)">precondition</text><text font-family="Arial,Arial_MSFontService,sans-serif" font-weight="400" font-size="14" transform="matrix(0.719298 0 0 0.720358 195.926 70)">: </text><text font-family="Arial,Arial_MSFontService,sans-serif" font-weight="400" font-size="14" transform="matrix(0.719298 0 0 0.720358 201.522 70)">is</text><text font-family="Arial,Arial_MSFontService,sans-serif" font-weight="400" font-size="14" transform="matrix(0.719298 0 0 0.720358 208.794 70)">_</text><text font-family="Arial,Arial_MSFontService,sans-serif" font-weight="400" font-size="14" transform="matrix(0.719298 0 0 0.720358 214.395 70)">inserted</text><text font-family="Arial,Arial_MSFontService,sans-serif" font-weight="400" font-size="14" transform="matrix(0.719298 0 0 0.720358 250.221 70)">(</text><text font-family="Arial,Arial_MSFontService,sans-serif" font-weight="400" font-size="14" transform="matrix(0.719298 0 0 0.720358 253.574 70)">gear</text><text font-family="Arial,Arial_MSFontService,sans-serif" font-weight="400" font-size="14" transform="matrix(0.719298 0 0 0.720358 273.729 70)">1</text><text font-family="Arial,Arial_MSFontService,sans-serif" font-weight="400" font-size="14" transform="matrix(0.719298 0 0 0.720358 279.33 70)">, </text><text font-family="Arial,Arial_MSFontService,sans-serif" font-weight="400" font-size="14" transform="matrix(0.719298 0 0 0.720358 284.925 70)">shaft</text><text font-family="Arial,Arial_MSFontService,sans-serif" font-weight="400" font-size="14" transform="matrix(0.719298 0 0 0.720358 306.757 70)">1</text><text font-family="Arial,Arial_MSFontService,sans-serif" font-weight="400" font-size="14" transform="matrix(0.719298 0 0 0.720358 312.358 70)">)</text><path d="M558.614-316.793C534.92-309.32 494.302-296.516 462.883-286.604" stroke="#000000" stroke-width="0.719298" fill="none" transform="matrix(1 0 0 1.00147 -190.123 340.064)"/><path d="M463.544-284.173 455.927-284.41 462.027-288.978 463.544-284.173Z" stroke="#000000" stroke-width="0.719298" transform="matrix(1 0 0 1.00147 -190.123 340.064)"/><path d="M908.682-271.895C908.682-264.744 832.21-258.947 737.878-258.947 643.545-258.947 567.073-264.744 567.073-271.895 567.073-279.045 643.545-284.842 737.878-284.842 832.21-284.842 908.682-279.045 908.682-271.895Z" stroke="#000000" stroke-width="0.719298" fill="#D3E6EF" transform="matrix(1 0 0 1.00147 -190.123 340.064)"/><text font-family="Arial,Arial_MSFontService,sans-serif" font-weight="400" font-size="14" transform="matrix(0.719298 0 0 0.720358 435.227 70)">precondition</text><text font-family="Arial,Arial_MSFontService,sans-serif" font-weight="400" font-size="14" transform="matrix(0.719298 0 0 0.720358 490.092 70)">: </text><text font-family="Arial,Arial_MSFontService,sans-serif" font-weight="400" font-size="14" transform="matrix(0.719298 0 0 0.720358 495.688 70)">is</text><text font-family="Arial,Arial_MSFontService,sans-serif" font-weight="400" font-size="14" transform="matrix(0.719298 0 0 0.720358 502.96 70)">_</text><text font-family="Arial,Arial_MSFontService,sans-serif" font-weight="400" font-size="14" transform="matrix(0.719298 0 0 0.720358 508.561 70)">engaged</text><text font-family="Arial,Arial_MSFontService,sans-serif" font-weight="400" font-size="14" transform="matrix(0.719298 0 0 0.720358 547.764 70)">(</text><text font-family="Arial,Arial_MSFontService,sans-serif" font-weight="400" font-size="14" transform="matrix(0.719298 0 0 0.720358 551.118 70)">compound</text><text font-family="Arial,Arial_MSFontService,sans-serif" font-weight="400" font-size="14" transform="matrix(0.719298 0 0 0.720358 598.145 70)">_</text><text font-family="Arial,Arial_MSFontService,sans-serif" font-weight="400" font-size="14" transform="matrix(0.719298 0 0 0.720358 603.745 70)">gear</text><text font-family="Arial,Arial_MSFontService,sans-serif" font-weight="400" font-size="14" transform="matrix(0.719298 0 0 0.720358 623.901 70)">, </text><text font-family="Arial,Arial_MSFontService,sans-serif" font-weight="400" font-size="14" transform="matrix(0.719298 0 0 0.720358 629.496 70)">shaft</text><text font-family="Arial,Arial_MSFontService,sans-serif" font-weight="400" font-size="14" transform="matrix(0.719298 0 0 0.720358 651.328 70)">2</text><text font-family="Arial,Arial_MSFontService,sans-serif" font-weight="400" font-size="14" transform="matrix(0.719298 0 0 0.720358 656.928 70)">)</text><path d="M597.773-316.793C621.315-309.37 661.553-296.682 692.893-286.798" stroke="#000000" stroke-width="0.719298" fill="none" transform="matrix(1 0 0 1.00147 -190.123 340.064)"/><path d="M693.734-289.172 699.834-284.612 692.216-284.374 693.734-289.172Z" stroke="#000000" stroke-width="0.719298" transform="matrix(1 0 0 1.00147 -190.123 340.064)"/><path d="M951.509-284.842C951.509-284.842 929.93-284.842 929.93-284.842 925.614-284.842 921.298-280.526 921.298-276.21 921.298-276.21 921.298-267.579 921.298-267.579 921.298-263.263 925.614-258.947 929.93-258.947 929.93-258.947 951.509-258.947 951.509-258.947 955.825-258.947 960.141-263.263 960.141-267.579 960.141-267.579 960.141-276.21 960.141-276.21 960.141-280.526 955.825-284.842 951.509-284.842" stroke="#000000" stroke-width="0.719298" fill="#F4B183" transform="matrix(1 0 0 1.00147 -190.123 340.064)"/><text font-family="Arial,Arial_MSFontService,sans-serif" font-weight="400" font-size="14" transform="matrix(0.719298 0 0 0.720358 747.796 70)">?</text><path d="M597.686-320.26C658.417-311.823 844.334-286 913.998-276.326" stroke="#000000" stroke-width="0.719298" fill="none" transform="matrix(1 0 0 1.00147 -190.123 340.064)"/><path d="M914.357-278.814 921.133-275.333 913.667-273.83 914.357-278.814Z" stroke="#000000" stroke-width="0.719298" transform="matrix(1 0 0 1.00147 -190.123 340.064)"/><path d="M985.942-220.105C985.942-212.955 930.915-207.158 863.035-207.158 795.156-207.158 740.129-212.955 740.129-220.105 740.129-227.256 795.156-233.053 863.035-233.053 930.915-233.053 985.942-227.256 985.942-220.105Z" stroke="#000000" stroke-width="0.719298" fill="#D3E6EF" transform="matrix(1 0 0 1.00147 -190.123 340.064)"/><text font-family="Arial,Arial_MSFontService,sans-serif" font-weight="400" font-size="14" transform="matrix(0.719298 0 0 0.720358 593.703 122)">target</text><text font-family="Arial,Arial_MSFontService,sans-serif" font-weight="400" font-size="14" transform="matrix(0.719298 0 0 0.720358 619.454 122)">: </text><text font-family="Arial,Arial_MSFontService,sans-serif" font-weight="400" font-size="14" transform="matrix(0.719298 0 0 0.720358 625.05 122)">is</text><text font-family="Arial,Arial_MSFontService,sans-serif" font-weight="400" font-size="14" transform="matrix(0.719298 0 0 0.720358 632.322 122)">_</text><text font-family="Arial,Arial_MSFontService,sans-serif" font-weight="400" font-size="14" transform="matrix(0.719298 0 0 0.720358 637.923 122)">inserted</text><text font-family="Arial,Arial_MSFontService,sans-serif" font-weight="400" font-size="14" transform="matrix(0.719298 0 0 0.720358 673.748 122)">_</text><text font-family="Arial,Arial_MSFontService,sans-serif" font-weight="400" font-size="14" transform="matrix(0.719298 0 0 0.720358 679.349 122)">to</text><text font-family="Arial,Arial_MSFontService,sans-serif" font-weight="400" font-size="14" transform="matrix(0.719298 0 0 0.720358 687.747 122)">(</text><text font-family="Arial,Arial_MSFontService,sans-serif" font-weight="400" font-size="14" transform="matrix(0.719298 0 0 0.720358 691.101 122)">shaft</text><text font-family="Arial,Arial_MSFontService,sans-serif" font-weight="400" font-size="14" transform="matrix(0.719298 0 0 0.720358 712.933 122)">3</text><text font-family="Arial,Arial_MSFontService,sans-serif" font-weight="400" font-size="14" transform="matrix(0.719298 0 0 0.720358 718.533 122)">, </text><text font-family="Arial,Arial_MSFontService,sans-serif" font-weight="400" font-size="14" transform="matrix(0.719298 0 0 0.720358 724.129 122)">hole</text><text font-family="Arial,Arial_MSFontService,sans-serif" font-weight="400" font-size="14" transform="matrix(0.719298 0 0 0.720358 743.168 122)">3</text><text font-family="Arial,Arial_MSFontService,sans-serif" font-weight="400" font-size="14" transform="matrix(0.719298 0 0 0.720358 748.768 122)">)</text><path d="M921.716-258.861C911.581-252.287 898.979-244.115 888.052-237.037" stroke="#000000" stroke-width="0.719298" fill="none" transform="matrix(1 0 0 1.00147 -190.123 340.064)"/><path d="M889.254-234.815 881.845-233.017 886.513-239.037 889.254-234.815Z" stroke="#000000" stroke-width="0.719298" transform="matrix(1 0 0 1.00147 -190.123 340.064)"/><path d="M1029.19-233.053C1029.19-233.053 1007.61-233.053 1007.61-233.053 1003.3-233.053 998.983-228.737 998.983-224.421 998.983-224.421 998.983-215.789 998.983-215.789 998.983-211.474 1003.3-207.158 1007.61-207.158 1007.61-207.158 1029.19-207.158 1029.19-207.158 1033.51-207.158 1037.82-211.474 1037.82-215.789 1037.82-215.789 1037.82-224.421 1037.82-224.421 1037.82-228.737 1033.51-233.053 1029.19-233.053" stroke="#000000" stroke-width="0.719298" fill="#94B5D7" transform="matrix(1 0 0 1.00147 -190.123 340.064)"/><text font-family="Arial,Arial_MSFontService,sans-serif" font-weight="400" font-size="14" transform="matrix(0.719298 0 0 0.720358 823.246 122)">→</text><path d="M959.723-258.861C969.786-252.337 982.281-244.238 993.149-237.196" stroke="#000000" stroke-width="0.719298" fill="none" transform="matrix(1 0 0 1.00147 -190.123 340.064)"/><path d="M994.66-239.217 999.328-233.189 991.926-234.987 994.66-239.217Z" stroke="#000000" stroke-width="0.719298" transform="matrix(1 0 0 1.00147 -190.123 340.064)"/><path d="M738.597-181.263C738.597-181.263 717.018-181.263 717.018-181.263 712.702-181.263 708.386-176.947 708.386-172.632 708.386-172.632 708.386-164 708.386-164 708.386-159.684 712.702-155.368 717.018-155.368 717.018-155.368 738.597-155.368 738.597-155.368 742.913-155.368 747.228-159.684 747.228-164 747.228-164 747.228-172.632 747.228-172.632 747.228-176.947 742.913-181.263 738.597-181.263" stroke="#000000" stroke-width="0.719298" fill="#F4B183" transform="matrix(1 0 0 1.00147 -190.123 340.064)"/><text font-family="Arial,Arial_MSFontService,sans-serif" font-weight="400" font-size="14" transform="matrix(0.719298 0 0 0.720358 534.884 174)">?</text><path d="M998.889-216.005C948.222-207.223 812.447-183.702 754.558-173.667" stroke="#000000" stroke-width="0.719298" fill="none" transform="matrix(1 0 0 1.00147 -190.123 340.064)"/><path d="M754.759-171.15 747.243-172.401 753.903-176.113 754.759-171.15Z" stroke="#000000" stroke-width="0.719298" transform="matrix(1 0 0 1.00147 -190.123 340.064)"/><path d="M873.105-181.263C873.105-181.263 851.527-181.263 851.527-181.263 847.211-181.263 842.895-176.947 842.895-172.632 842.895-172.632 842.895-164 842.895-164 842.895-159.684 847.211-155.368 851.527-155.368 851.527-155.368 873.105-155.368 873.105-155.368 877.421-155.368 881.737-159.684 881.737-164 881.737-164 881.737-172.632 881.737-172.632 881.737-176.947 877.421-181.263 873.105-181.263" stroke="#000000" stroke-width="0.719298" fill="#F4B183" transform="matrix(1 0 0 1.00147 -190.123 340.064)"/><text font-family="Arial,Arial_MSFontService,sans-serif" font-weight="400" font-size="14" transform="matrix(0.719298 0 0 0.720358 669.393 174)">?</text><path d="M998.954-213.114C971.131-204.137 919.889-187.607 888.678-177.537" stroke="#000000" stroke-width="0.719298" fill="none" transform="matrix(1 0 0 1.00147 -190.123 340.064)"/><path d="M889.39-175.12 881.773-175.307 887.844-179.911 889.39-175.12Z" stroke="#000000" stroke-width="0.719298" transform="matrix(1 0 0 1.00147 -190.123 340.064)"/><path d="M1141.89-168.316C1141.89-161.165 1086.6-155.368 1018.4-155.368 950.207-155.368 894.922-161.165 894.922-168.316 894.922-175.466 950.206-181.263 1018.4-181.263 1086.6-181.263 1141.89-175.466 1141.89-168.316Z" stroke="#000000" stroke-width="0.719298" fill="#D3E6EF" transform="matrix(1 0 0 1.00147 -190.123 340.064)"/><text font-family="Arial,Arial_MSFontService,sans-serif" font-weight="400" font-size="14" transform="matrix(0.719298 0 0 0.720358 747.668 174)">precondition</text><text font-family="Arial,Arial_MSFontService,sans-serif" font-weight="400" font-size="14" transform="matrix(0.719298 0 0 0.720358 802.533 174)">: </text><text font-family="Arial,Arial_MSFontService,sans-serif" font-weight="400" font-size="14" transform="matrix(0.719298 0 0 0.720358 808.128 174)">pose</text><text font-family="Arial,Arial_MSFontService,sans-serif" font-weight="400" font-size="14" transform="matrix(0.719298 0 0 0.720358 829.965 174)">_</text><text font-family="Arial,Arial_MSFontService,sans-serif" font-weight="400" font-size="14" transform="matrix(0.719298 0 0 0.720358 835.565 174)">is</text><text font-family="Arial,Arial_MSFontService,sans-serif" font-weight="400" font-size="14" transform="matrix(0.719298 0 0 0.720358 842.838 174)">_</text><text font-family="Arial,Arial_MSFontService,sans-serif" font-weight="400" font-size="14" transform="matrix(0.719298 0 0 0.720358 848.438 174)">known</text><text font-family="Arial,Arial_MSFontService,sans-serif" font-weight="400" font-size="14" transform="matrix(0.719298 0 0 0.720358 877.547 174)">(</text><text font-family="Arial,Arial_MSFontService,sans-serif" font-weight="400" font-size="14" transform="matrix(0.719298 0 0 0.720358 880.901 174)">hole</text><text font-family="Arial,Arial_MSFontService,sans-serif" font-weight="400" font-size="14" transform="matrix(0.719298 0 0 0.720358 899.94 174)">3</text><text font-family="Arial,Arial_MSFontService,sans-serif" font-weight="400" font-size="14" transform="matrix(0.719298 0 0 0.720358 905.54 174)">)</text><path d="M1018.4-206.942C1018.4-201.389 1018.4-194.721 1018.4-188.535" stroke="#000000" stroke-width="0.719298" fill="none" transform="matrix(1 0 0 1.00147 -190.123 340.064)"/><path d="M1020.92-188.528 1018.4-181.335 1015.89-188.528 1020.92-188.528Z" stroke="#000000" stroke-width="0.719298" transform="matrix(1 0 0 1.00147 -190.123 340.064)"/><text font-family="Arial,Arial_MSFontService,sans-serif" font-weight="400" font-size="25" transform="matrix(0.719298 0 0 0.720358 976.874 176)">...</text><path d="M1458.61-181.263C1458.61-181.263 1215.49-181.263 1215.49-181.263 1211.18-181.263 1206.86-176.947 1206.86-172.632 1206.86-172.632 1206.86-164 1206.86-164 1206.86-159.684 1211.18-155.368 1215.49-155.368 1215.49-155.368 1458.61-155.368 1458.61-155.368 1462.93-155.368 1467.25-159.684 1467.25-164 1467.25-164 1467.25-172.632 1467.25-172.632 1467.25-176.947 1462.93-181.263 1458.61-181.263" stroke="#000000" stroke-width="0.719298" fill="#FFEFBE" transform="matrix(1 0 0 1.00147 -190.123 340.064)"/><text font-family="Arial,Arial_MSFontService,sans-serif" font-weight="400" font-size="14" transform="matrix(0.719298 0 0 0.720358 1038.61 174)">action</text><text font-family="Arial,Arial_MSFontService,sans-serif" font-weight="400" font-size="14" transform="matrix(0.719298 0 0 0.720358 1065.48 174)">: </text><text font-family="Arial,Arial_MSFontService,sans-serif" font-weight="400" font-size="14" transform="matrix(0.719298 0 0 0.720358 1071.08 174)">insert</text><text font-family="Arial,Arial_MSFontService,sans-serif" font-weight="400" font-size="14" transform="matrix(0.719298 0 0 0.720358 1095.7 174)">(</text><text font-family="Arial,Arial_MSFontService,sans-serif" font-weight="400" font-size="14" transform="matrix(0.719298 0 0 0.720358 1099.05 174)">hand</text><text font-family="Arial,Arial_MSFontService,sans-serif" font-weight="400" font-size="14" transform="matrix(0.719298 0 0 0.720358 1121.46 174)">, </text><text font-family="Arial,Arial_MSFontService,sans-serif" font-weight="400" font-size="14" transform="matrix(0.719298 0 0 0.720358 1127.05 174)">defaultgripper</text><text font-family="Arial,Arial_MSFontService,sans-serif" font-weight="400" font-size="14" transform="matrix(0.719298 0 0 0.720358 1188.63 174)">, </text><text font-family="Arial,Arial_MSFontService,sans-serif" font-weight="400" font-size="14" transform="matrix(0.719298 0 0 0.720358 1194.23 174)">shaft</text><text font-family="Arial,Arial_MSFontService,sans-serif" font-weight="400" font-size="14" transform="matrix(0.719298 0 0 0.720358 1216.06 174)">3</text><text font-family="Arial,Arial_MSFontService,sans-serif" font-weight="400" font-size="14" transform="matrix(0.719298 0 0 0.720358 1221.66 174)">, </text><text font-family="Arial,Arial_MSFontService,sans-serif" font-weight="400" font-size="14" transform="matrix(0.719298 0 0 0.720358 1227.26 174)">hole</text><text font-family="Arial,Arial_MSFontService,sans-serif" font-weight="400" font-size="14" transform="matrix(0.719298 0 0 0.720358 1246.3 174)">3</text><text font-family="Arial,Arial_MSFontService,sans-serif" font-weight="400" font-size="14" transform="matrix(0.719298 0 0 0.720358 1251.9 174)">)</text><path d="M1037.86-216.314C1079.51-209.733 1179.45-193.937 1252.4-182.414" stroke="#000000" stroke-width="0.719298" fill="none" transform="matrix(1 0 0 1.00147 -190.123 340.064)"/><path d="M1252.88-184.881 1259.59-181.277 1252.1-179.911 1252.88-184.881Z" stroke="#000000" stroke-width="0.719298" transform="matrix(1 0 0 1.00147 -190.123 340.064)"/><path d="M695.417-116.526C695.417-109.376 641.002-103.579 573.878-103.579 506.753-103.579 452.338-109.376 452.338-116.526 452.338-123.677 506.753-129.474 573.878-129.474 641.002-129.474 695.417-123.677 695.417-116.526Z" stroke="#000000" stroke-width="0.719298" fill="#D3E6EF" transform="matrix(1 0 0 1.00147 -190.123 340.064)"/><text font-family="Arial,Arial_MSFontService,sans-serif" font-weight="400" font-size="14" transform="matrix(0.719298 0 0 0.720358 307.904 226)">target</text><text font-family="Arial,Arial_MSFontService,sans-serif" font-weight="400" font-size="14" transform="matrix(0.719298 0 0 0.720358 333.655 226)">: </text><text font-family="Arial,Arial_MSFontService,sans-serif" font-weight="400" font-size="14" transform="matrix(0.719298 0 0 0.720358 339.25 226)">hold</text><text font-family="Arial,Arial_MSFontService,sans-serif" font-weight="400" font-size="14" transform="matrix(0.719298 0 0 0.720358 358.289 226)">(</text><text font-family="Arial,Arial_MSFontService,sans-serif" font-weight="400" font-size="14" transform="matrix(0.719298 0 0 0.720358 361.643 226)">defaultgripper</text><text font-family="Arial,Arial_MSFontService,sans-serif" font-weight="400" font-size="14" transform="matrix(0.719298 0 0 0.720358 423.224 226)">, </text><text font-family="Arial,Arial_MSFontService,sans-serif" font-weight="400" font-size="14" transform="matrix(0.719298 0 0 0.720358 428.82 226)">shaft</text><text font-family="Arial,Arial_MSFontService,sans-serif" font-weight="400" font-size="14" transform="matrix(0.719298 0 0 0.720358 450.652 226)">3</text><text font-family="Arial,Arial_MSFontService,sans-serif" font-weight="400" font-size="14" transform="matrix(0.719298 0 0 0.720358 456.252 226)">)</text><path d="M708.314-161.216C685.347-153.707 646.519-141.004 616.482-131.178" stroke="#000000" stroke-width="0.719298" fill="none" transform="matrix(1 0 0 1.00147 -190.123 340.064)"/><path d="M617.251-128.783 609.634-128.941 615.683-133.566 617.251-128.783Z" stroke="#000000" stroke-width="0.719298" transform="matrix(1 0 0 1.00147 -190.123 340.064)"/><path d="M738.597-129.474C738.597-129.474 717.018-129.474 717.018-129.474 712.702-129.474 708.386-125.158 708.386-120.842 708.386-120.842 708.386-112.21 708.386-112.21 708.386-107.895 712.702-103.579 717.018-103.579 717.018-103.579 738.597-103.579 738.597-103.579 742.913-103.579 747.228-107.895 747.228-112.21 747.228-112.21 747.228-120.842 747.228-120.842 747.228-125.158 742.913-129.474 738.597-129.474" stroke="#000000" stroke-width="0.719298" fill="#94B5D7" transform="matrix(1 0 0 1.00147 -190.123 340.064)"/><text font-family="Arial,Arial_MSFontService,sans-serif" font-weight="400" font-size="14" transform="matrix(0.719298 0 0 0.720358 532.649 226)">→</text><path d="M727.807-155.153C727.807-149.6 727.807-142.932 727.807-136.746" stroke="#000000" stroke-width="0.719298" fill="none" transform="matrix(1 0 0 1.00147 -190.123 340.064)"/><path d="M730.325-136.739 727.807-129.546 725.29-136.739 730.325-136.739Z" stroke="#000000" stroke-width="0.719298" transform="matrix(1 0 0 1.00147 -190.123 340.064)"/><path d="M686.807-77.6842C686.807-77.6842 665.228-77.6842 665.228-77.6842 660.913-77.6842 656.597-73.3684 656.597-69.0526 656.597-69.0526 656.597-60.421 656.597-60.421 656.597-56.1052 660.913-51.7895 665.228-51.7895 665.228-51.7895 686.807-51.7895 686.807-51.7895 691.123-51.7895 695.439-56.1052 695.439-60.421 695.439-60.421 695.439-69.0526 695.439-69.0526 695.439-73.3684 691.123-77.6842 686.807-77.6842" stroke="#000000" stroke-width="0.719298" fill="#F4B183" transform="matrix(1 0 0 1.00147 -190.123 340.064)"/><text font-family="Arial,Arial_MSFontService,sans-serif" font-weight="400" font-size="14" transform="matrix(0.719298 0 0 0.720358 483.095 278)">?</text><path d="M715.011-103.363C708.674-97.2059 700.92-89.6677 694-82.9351" stroke="#000000" stroke-width="0.719298" fill="none" transform="matrix(1 0 0 1.00147 -190.123 340.064)"/><path d="M695.59-80.9714 688.677-77.7561 692.08-84.5751 695.59-80.9714Z" stroke="#000000" stroke-width="0.719298" transform="matrix(1 0 0 1.00147 -190.123 340.064)"/><text font-family="Arial,Arial_MSFontService,sans-serif" font-weight="400" font-size="25" transform="matrix(0.719298 0 0 0.720358 530.19 280)">...</text><path d="M987.474-77.6842C987.474-77.6842 768.807-77.6842 768.807-77.6842 764.491-77.6842 760.176-73.3684 760.176-69.0526 760.176-69.0526 760.176-60.421 760.176-60.421 760.176-56.1052 764.491-51.7895 768.807-51.7895 768.807-51.7895 987.474-51.7895 987.474-51.7895 991.79-51.7895 996.105-56.1052 996.105-60.421 996.105-60.421 996.105-69.0526 996.105-69.0526 996.105-73.3684 991.79-77.6842 987.474-77.6842" stroke="#000000" stroke-width="0.719298" fill="#FFEFBE" transform="matrix(1 0 0 1.00147 -190.123 340.064)"/><text font-family="Arial,Arial_MSFontService,sans-serif" font-weight="400" font-size="14" transform="matrix(0.719298 0 0 0.720358 589.772 278)">action</text><text font-family="Arial,Arial_MSFontService,sans-serif" font-weight="400" font-size="14" transform="matrix(0.719298 0 0 0.720358 616.644 278)">: </text><text font-family="Arial,Arial_MSFontService,sans-serif" font-weight="400" font-size="14" transform="matrix(0.719298 0 0 0.720358 622.24 278)">pick</text><text font-family="Arial,Arial_MSFontService,sans-serif" font-weight="400" font-size="14" transform="matrix(0.719298 0 0 0.720358 640.148 278)">_</text><text font-family="Arial,Arial_MSFontService,sans-serif" font-weight="400" font-size="14" transform="matrix(0.719298 0 0 0.720358 645.748 278)">up</text><text font-family="Arial,Arial_MSFontService,sans-serif" font-weight="400" font-size="14" transform="matrix(0.719298 0 0 0.720358 656.949 278)">(</text><text font-family="Arial,Arial_MSFontService,sans-serif" font-weight="400" font-size="14" transform="matrix(0.719298 0 0 0.720358 660.303 278)">hand</text><text font-family="Arial,Arial_MSFontService,sans-serif" font-weight="400" font-size="14" transform="matrix(0.719298 0 0 0.720358 682.705 278)">, </text><text font-family="Arial,Arial_MSFontService,sans-serif" font-weight="400" font-size="14" transform="matrix(0.719298 0 0 0.720358 688.3 278)">defaultgripper</text><text font-family="Arial,Arial_MSFontService,sans-serif" font-weight="400" font-size="14" transform="matrix(0.719298 0 0 0.720358 749.882 278)">, </text><text font-family="Arial,Arial_MSFontService,sans-serif" font-weight="400" font-size="14" transform="matrix(0.719298 0 0 0.720358 755.478 278)">shaft</text><text font-family="Arial,Arial_MSFontService,sans-serif" font-weight="400" font-size="14" transform="matrix(0.719298 0 0 0.720358 777.309 278)">3</text><text font-family="Arial,Arial_MSFontService,sans-serif" font-weight="400" font-size="14" transform="matrix(0.719298 0 0 0.720358 782.91 278)">)</text><path d="M747.466-109.225C769.447-101.86 805.743-89.7037 834.515-80.0651" stroke="#000000" stroke-width="0.719298" fill="none" transform="matrix(1 0 0 1.00147 -190.123 340.064)"/><path d="M835.443-82.41 841.464-77.7417 833.846-77.6338 835.443-82.41Z" stroke="#000000" stroke-width="0.719298" transform="matrix(1 0 0 1.00147 -190.123 340.064)"/><path d="M682.254-12.9474C682.254-5.79673 635.342 2.55546e-15 577.474 2.55546e-15 519.606 5.11092e-15 472.694-5.79673 472.694-12.9474 472.694-20.098 519.606-25.8947 577.474-25.8947 635.342-25.8947 682.254-20.098 682.254-12.9474Z" stroke="#000000" stroke-width="0.719298" fill="#D3E6EF" transform="matrix(1 0 0 1.00147 -190.123 340.064)"/><text font-family="Arial,Arial_MSFontService,sans-serif" font-weight="400" font-size="14" transform="matrix(0.719298 0 0 0.720358 319.899 330)">target</text><text font-family="Arial,Arial_MSFontService,sans-serif" font-weight="400" font-size="14" transform="matrix(0.719298 0 0 0.720358 345.649 330)">: </text><text font-family="Arial,Arial_MSFontService,sans-serif" font-weight="400" font-size="14" transform="matrix(0.719298 0 0 0.720358 351.245 330)">pose</text><text font-family="Arial,Arial_MSFontService,sans-serif" font-weight="400" font-size="14" transform="matrix(0.719298 0 0 0.720358 373.082 330)">_</text><text font-family="Arial,Arial_MSFontService,sans-serif" font-weight="400" font-size="14" transform="matrix(0.719298 0 0 0.720358 378.682 330)">is</text><text font-family="Arial,Arial_MSFontService,sans-serif" font-weight="400" font-size="14" transform="matrix(0.719298 0 0 0.720358 385.955 330)">_</text><text font-family="Arial,Arial_MSFontService,sans-serif" font-weight="400" font-size="14" transform="matrix(0.719298 0 0 0.720358 391.555 330)">known</text><text font-family="Arial,Arial_MSFontService,sans-serif" font-weight="400" font-size="14" transform="matrix(0.719298 0 0 0.720358 420.664 330)">(</text><text font-family="Arial,Arial_MSFontService,sans-serif" font-weight="400" font-size="14" transform="matrix(0.719298 0 0 0.720358 424.018 330)">shaft</text><text font-family="Arial,Arial_MSFontService,sans-serif" font-weight="400" font-size="14" transform="matrix(0.719298 0 0 0.720358 445.85 330)">3</text><text font-family="Arial,Arial_MSFontService,sans-serif" font-weight="400" font-size="14" transform="matrix(0.719298 0 0 0.720358 451.45 330)">)</text><path d="M656.554-54.0696C642.614-46.9486 623.574-37.2237 607.677-29.0956" stroke="#000000" stroke-width="0.719298" fill="none" transform="matrix(1 0 0 1.00147 -190.123 340.064)"/><path d="M608.627-26.7579 601.074-25.7221 606.339-31.2391 608.627-26.7579Z" stroke="#000000" stroke-width="0.719298" transform="matrix(1 0 0 1.00147 -190.123 340.064)"/><path d="M845.412-25.8947C845.412-25.8947 703.711-25.8947 703.711-25.8947 699.395-25.8947 695.079-21.5789 695.079-17.2632 695.079-17.2632 695.079-8.63158 695.079-8.63158 695.079-4.31579 699.395 0 703.711 0 703.711 0 845.412 0 845.412 0 849.728 0 854.044-4.31579 854.044-8.63158 854.044-8.63158 854.044-17.2632 854.044-17.2632 854.044-21.5789 849.728-25.8947 845.412-25.8947" stroke="#000000" stroke-width="0.719298" fill="#FFEFBE" transform="matrix(1 0 0 1.00147 -190.123 340.064)"/><text font-family="Arial,Arial_MSFontService,sans-serif" font-weight="400" font-size="14" transform="matrix(0.719298 0 0 0.720358 518.388 330)">action</text><text font-family="Arial,Arial_MSFontService,sans-serif" font-weight="400" font-size="14" transform="matrix(0.719298 0 0 0.720358 545.26 330)">: </text><text font-family="Arial,Arial_MSFontService,sans-serif" font-weight="400" font-size="14" transform="matrix(0.719298 0 0 0.720358 550.855 330)">estimate</text><text font-family="Arial,Arial_MSFontService,sans-serif" font-weight="400" font-size="14" transform="matrix(0.719298 0 0 0.720358 588.913 330)">_</text><text font-family="Arial,Arial_MSFontService,sans-serif" font-weight="400" font-size="14" transform="matrix(0.719298 0 0 0.720358 594.514 330)">pose</text><text font-family="Arial,Arial_MSFontService,sans-serif" font-weight="400" font-size="14" transform="matrix(0.719298 0 0 0.720358 616.351 330)">(</text><text font-family="Arial,Arial_MSFontService,sans-serif" font-weight="400" font-size="14" transform="matrix(0.719298 0 0 0.720358 619.704 330)">shaft</text><text font-family="Arial,Arial_MSFontService,sans-serif" font-weight="400" font-size="14" transform="matrix(0.719298 0 0 0.720358 641.536 330)">3</text><text font-family="Arial,Arial_MSFontService,sans-serif" font-weight="400" font-size="14" transform="matrix(0.719298 0 0 0.720358 647.136 330)">)</text><path d="M695.489-54.0696C709.329-46.9989 728.196-37.3603 744.027-29.2682" stroke="#000000" stroke-width="0.719298" fill="none" transform="matrix(1 0 0 1.00147 -190.123 340.064)"/><path d="M745.344-31.4261 750.602-25.9091 743.056-26.9377 745.344-31.4261Z" stroke="#000000" stroke-width="0.719298" transform="matrix(1 0 0 1.00147 -190.123 340.064)"/><path d="M964.579-116.526C964.579-109.376 918.794-103.579 862.316-103.579 805.838-103.579 760.053-109.376 760.053-116.526 760.053-123.677 805.838-129.474 862.316-129.474 918.794-129.474 964.579-123.677 964.579-116.526Z" stroke="#000000" stroke-width="0.719298" fill="#D3E6EF" transform="matrix(1 0 0 1.00147 -190.123 340.064)"/><text font-family="Arial,Arial_MSFontService,sans-serif" font-weight="400" font-size="14" transform="matrix(0.719298 0 0 0.720358 606.137 226)">target</text><text font-family="Arial,Arial_MSFontService,sans-serif" font-weight="400" font-size="14" transform="matrix(0.719298 0 0 0.720358 631.888 226)">: </text><text font-family="Arial,Arial_MSFontService,sans-serif" font-weight="400" font-size="14" transform="matrix(0.719298 0 0 0.720358 637.484 226)">pose</text><text font-family="Arial,Arial_MSFontService,sans-serif" font-weight="400" font-size="14" transform="matrix(0.719298 0 0 0.720358 659.32 226)">_</text><text font-family="Arial,Arial_MSFontService,sans-serif" font-weight="400" font-size="14" transform="matrix(0.719298 0 0 0.720358 664.921 226)">is</text><text font-family="Arial,Arial_MSFontService,sans-serif" font-weight="400" font-size="14" transform="matrix(0.719298 0 0 0.720358 672.193 226)">_</text><text font-family="Arial,Arial_MSFontService,sans-serif" font-weight="400" font-size="14" transform="matrix(0.719298 0 0 0.720358 677.794 226)">known</text><text font-family="Arial,Arial_MSFontService,sans-serif" font-weight="400" font-size="14" transform="matrix(0.719298 0 0 0.720358 706.903 226)">(</text><text font-family="Arial,Arial_MSFontService,sans-serif" font-weight="400" font-size="14" transform="matrix(0.719298 0 0 0.720358 710.256 226)">hole</text><text font-family="Arial,Arial_MSFontService,sans-serif" font-weight="400" font-size="14" transform="matrix(0.719298 0 0 0.720358 729.295 226)">3</text><text font-family="Arial,Arial_MSFontService,sans-serif" font-weight="400" font-size="14" transform="matrix(0.719298 0 0 0.720358 734.896 226)">)</text><path d="M862.316-155.153C862.316-149.6 862.316-142.932 862.316-136.746" stroke="#000000" stroke-width="0.719298" fill="none" transform="matrix(1 0 0 1.00147 -190.123 340.064)"/><path d="M864.834-136.739 862.316-129.546 859.798-136.739 864.834-136.739Z" stroke="#000000" stroke-width="0.719298" transform="matrix(1 0 0 1.00147 -190.123 340.064)"/><path d="M1124.14-129.474C1124.14-129.474 986.035-129.474 986.035-129.474 981.719-129.474 977.404-125.158 977.404-120.842 977.404-120.842 977.404-112.21 977.404-112.21 977.404-107.895 981.719-103.579 986.035-103.579 986.035-103.579 1124.14-103.579 1124.14-103.579 1128.46-103.579 1132.77-107.895 1132.77-112.21 1132.77-112.21 1132.77-120.842 1132.77-120.842 1132.77-125.158 1128.46-129.474 1124.14-129.474" stroke="#000000" stroke-width="0.719298" fill="#FFEFBE" transform="matrix(1 0 0 1.00147 -190.123 340.064)"/><text font-family="Arial,Arial_MSFontService,sans-serif" font-weight="400" font-size="14" transform="matrix(0.719298 0 0 0.720358 800.31 226)">action</text><text font-family="Arial,Arial_MSFontService,sans-serif" font-weight="400" font-size="14" transform="matrix(0.719298 0 0 0.720358 827.182 226)">: </text><text font-family="Arial,Arial_MSFontService,sans-serif" font-weight="400" font-size="14" transform="matrix(0.719298 0 0 0.720358 832.778 226)">estimate</text><text font-family="Arial,Arial_MSFontService,sans-serif" font-weight="400" font-size="14" transform="matrix(0.719298 0 0 0.720358 870.836 226)">_</text><text font-family="Arial,Arial_MSFontService,sans-serif" font-weight="400" font-size="14" transform="matrix(0.719298 0 0 0.720358 876.437 226)">pose</text><text font-family="Arial,Arial_MSFontService,sans-serif" font-weight="400" font-size="14" transform="matrix(0.719298 0 0 0.720358 898.273 226)">(</text><text font-family="Arial,Arial_MSFontService,sans-serif" font-weight="400" font-size="14" transform="matrix(0.719298 0 0 0.720358 901.627 226)">hole</text><text font-family="Arial,Arial_MSFontService,sans-serif" font-weight="400" font-size="14" transform="matrix(0.719298 0 0 0.720358 920.666 226)">3</text><text font-family="Arial,Arial_MSFontService,sans-serif" font-weight="400" font-size="14" transform="matrix(0.719298 0 0 0.720358 926.266 226)">)</text><path d="M881.867-162.489C909.581-155.253 961.371-141.723 1001.13-131.344" stroke="#000000" stroke-width="0.719298" fill="none" transform="matrix(1 0 0 1.00147 -190.123 340.064)"/><path d="M1001.82-133.761 1008.15-129.51 1000.55-128.891 1001.82-133.761Z" stroke="#000000" stroke-width="0.719298" transform="matrix(1 0 0 1.00147 -190.123 340.064)"/></g></svg>