<svg width="1732" height="362" xmlns="http://www.w3.org/2000/svg" xmlns:xlink="http://www.w3.org/1999/xlink" xml:space="preserve" overflow="hidden"><g transform="translate(453 2)"><path d="M791.199-355.756C791.199-355.756 768.394-355.756 768.394-355.756 763.833-355.756 759.272-351.195 759.272-346.634 759.272-346.634 759.272-337.512 759.272-337.512 759.272-332.951 763.833-328.39 768.394-328.39 768.394-328.39 791.199-328.39 791.199-328.39 795.76-328.39 800.321-332.951 800.321-337.512 800.321-337.512 800.321-346.634 800.321-346.634 800.321-351.195 795.76-355.756 791.199-355.756" stroke="#000000" stroke-width="0.760162" fill="#94B5D7" transform="matrix(1.00072 0 0 1 -449.957 356.878)"/><text font-family="Arial,Arial_MSFontService,sans-serif" font-weight="400" font-size="14" transform="matrix(0.760707 0 0 0.760162 325.074 18)">→</text><path d="M285.441-287.341C285.441-279.784 221.57-273.658 142.781-273.658 63.9925-273.658 0.121627-279.784 0.121627-287.341 0.121627-294.898 63.9925-301.024 142.781-301.024 221.57-301.024 285.441-294.898 285.441-287.341Z" stroke="#000000" stroke-width="0.760162" fill="#D3E6EF" transform="matrix(1.00072 0 0 1 -449.957 356.878)"/><text font-family="Arial,Arial_MSFontService,sans-serif" font-weight="400" font-size="14" transform="matrix(0.760707 0 0 0.760162 -398.835 72)">precondition</text><text font-family="Arial,Arial_MSFontService,sans-serif" font-weight="400" font-size="14" transform="matrix(0.760707 0 0 0.760162 -340.812 72)">: </text><text font-family="Arial,Arial_MSFontService,sans-serif" font-weight="400" font-size="14" transform="matrix(0.760707 0 0 0.760162 -334.894 72)">is</text><text font-family="Arial,Arial_MSFontService,sans-serif" font-weight="400" font-size="14" transform="matrix(0.760707 0 0 0.760162 -327.203 72)">_</text><text font-family="Arial,Arial_MSFontService,sans-serif" font-weight="400" font-size="14" transform="matrix(0.760707 0 0 0.760162 -321.28 72)">inserted</text><text font-family="Arial,Arial_MSFontService,sans-serif" font-weight="400" font-size="14" transform="matrix(0.760707 0 0 0.760162 -283.392 72)">(</text><text font-family="Arial,Arial_MSFontService,sans-serif" font-weight="400" font-size="14" transform="matrix(0.760707 0 0 0.760162 -279.846 72)">shatf</text><text font-family="Arial,Arial_MSFontService,sans-serif" font-weight="400" font-size="14" transform="matrix(0.760707 0 0 0.760162 -256.757 72)">1</text><text font-family="Arial,Arial_MSFontService,sans-serif" font-weight="400" font-size="14" transform="matrix(0.760707 0 0 0.760162 -250.834 72)">, </text><text font-family="Arial,Arial_MSFontService,sans-serif" font-weight="400" font-size="14" transform="matrix(0.760707 0 0 0.760162 -244.916 72)">hole</text><text font-family="Arial,Arial_MSFontService,sans-serif" font-weight="400" font-size="14" transform="matrix(0.760707 0 0 0.760162 -224.781 72)">1</text><text font-family="Arial,Arial_MSFontService,sans-serif" font-weight="400" font-size="14" transform="matrix(0.760707 0 0 0.760162 -218.858 72)">)</text><path d="M758.968-339.572C682.002-333.141 410.107-310.435 254.426-297.428" stroke="#000000" stroke-width="0.760162" fill="none" transform="matrix(1.00072 0 0 1 -449.957 356.878)"/><path d="M254.441-294.76 246.642-296.775 253.993-300.059 254.441-294.76Z" stroke="#000000" stroke-width="0.760162" transform="matrix(1.00072 0 0 1 -449.957 356.878)"/><path d="M585.553-287.341C585.553-279.784 521.409-273.658 442.285-273.658 363.16-273.658 299.017-279.784 299.017-287.341 299.017-294.898 363.16-301.024 442.285-301.024 521.409-301.024 585.553-294.898 585.553-287.341Z" stroke="#000000" stroke-width="0.760162" fill="#D3E6EF" transform="matrix(1.00072 0 0 1 -449.957 356.878)"/><text font-family="Arial,Arial_MSFontService,sans-serif" font-weight="400" font-size="14" transform="matrix(0.760707 0 0 0.760162 -99.7071 72)">precondition</text><text font-family="Arial,Arial_MSFontService,sans-serif" font-weight="400" font-size="14" transform="matrix(0.760707 0 0 0.760162 -41.6839 72)">: </text><text font-family="Arial,Arial_MSFontService,sans-serif" font-weight="400" font-size="14" transform="matrix(0.760707 0 0 0.760162 -35.7661 72)">is</text><text font-family="Arial,Arial_MSFontService,sans-serif" font-weight="400" font-size="14" transform="matrix(0.760707 0 0 0.760162 -28.0751 72)">_</text><text font-family="Arial,Arial_MSFontService,sans-serif" font-weight="400" font-size="14" transform="matrix(0.760707 0 0 0.760162 -22.1522 72)">inserted</text><text font-family="Arial,Arial_MSFontService,sans-serif" font-weight="400" font-size="14" transform="matrix(0.760707 0 0 0.760162 15.7361 72)">(</text><text font-family="Arial,Arial_MSFontService,sans-serif" font-weight="400" font-size="14" transform="matrix(0.760707 0 0 0.760162 19.2826 72)">gear</text><text font-family="Arial,Arial_MSFontService,sans-serif" font-weight="400" font-size="14" transform="matrix(0.760707 0 0 0.760162 40.598 72)">1</text><text font-family="Arial,Arial_MSFontService,sans-serif" font-weight="400" font-size="14" transform="matrix(0.760707 0 0 0.760162 46.5209 72)">, </text><text font-family="Arial,Arial_MSFontService,sans-serif" font-weight="400" font-size="14" transform="matrix(0.760707 0 0 0.760162 52.4387 72)">shaft</text><text font-family="Arial,Arial_MSFontService,sans-serif" font-weight="400" font-size="14" transform="matrix(0.760707 0 0 0.760162 75.5273 72)">1</text><text font-family="Arial,Arial_MSFontService,sans-serif" font-weight="400" font-size="14" transform="matrix(0.760707 0 0 0.760162 81.4503 72)">)</text><path d="M759.196-338.067C712.933-330.769 598.772-312.776 520.886-300.492" stroke="#000000" stroke-width="0.760162" fill="none" transform="matrix(1.00072 0 0 1 -449.957 356.878)"/><path d="M521.152-297.839 513.231-299.283 520.323-303.099 521.152-297.839Z" stroke="#000000" stroke-width="0.760162" transform="matrix(1.00072 0 0 1 -449.957 356.878)"/><path d="M960.305-287.341C960.305-279.784 879.489-273.658 779.797-273.658 680.105-273.658 599.289-279.784 599.289-287.341 599.289-294.898 680.105-301.024 779.797-301.024 879.489-301.024 960.305-294.898 960.305-287.341Z" stroke="#000000" stroke-width="0.760162" fill="#D3E6EF" transform="matrix(1.00072 0 0 1 -449.957 356.878)"/><text font-family="Arial,Arial_MSFontService,sans-serif" font-weight="400" font-size="14" transform="matrix(0.760707 0 0 0.760162 211.393 72)">precondition</text><text font-family="Arial,Arial_MSFontService,sans-serif" font-weight="400" font-size="14" transform="matrix(0.760707 0 0 0.760162 269.417 72)">: </text><text font-family="Arial,Arial_MSFontService,sans-serif" font-weight="400" font-size="14" transform="matrix(0.760707 0 0 0.760162 275.334 72)">is</text><text font-family="Arial,Arial_MSFontService,sans-serif" font-weight="400" font-size="14" transform="matrix(0.760707 0 0 0.760162 283.025 72)">_</text><text font-family="Arial,Arial_MSFontService,sans-serif" font-weight="400" font-size="14" transform="matrix(0.760707 0 0 0.760162 288.948 72)">engaged</text><text font-family="Arial,Arial_MSFontService,sans-serif" font-weight="400" font-size="14" transform="matrix(0.760707 0 0 0.760162 330.409 72)">(</text><text font-family="Arial,Arial_MSFontService,sans-serif" font-weight="400" font-size="14" transform="matrix(0.760707 0 0 0.760162 333.956 72)">compound</text><text font-family="Arial,Arial_MSFontService,sans-serif" font-weight="400" font-size="14" transform="matrix(0.760707 0 0 0.760162 383.69 72)">_</text><text font-family="Arial,Arial_MSFontService,sans-serif" font-weight="400" font-size="14" transform="matrix(0.760707 0 0 0.760162 389.613 72)">gear</text><text font-family="Arial,Arial_MSFontService,sans-serif" font-weight="400" font-size="14" transform="matrix(0.760707 0 0 0.760162 410.928 72)">, </text><text font-family="Arial,Arial_MSFontService,sans-serif" font-weight="400" font-size="14" transform="matrix(0.760707 0 0 0.760162 416.846 72)">shaft</text><text font-family="Arial,Arial_MSFontService,sans-serif" font-weight="400" font-size="14" transform="matrix(0.760707 0 0 0.760162 439.934 72)">2</text><text font-family="Arial,Arial_MSFontService,sans-serif" font-weight="400" font-size="14" transform="matrix(0.760707 0 0 0.760162 445.857 72)">)</text><path d="M779.797-328.162C779.797-322.293 779.797-315.247 779.797-308.709" stroke="#000000" stroke-width="0.760162" fill="none" transform="matrix(1.00072 0 0 1 -449.957 356.878)"/><path d="M782.457-308.702 779.797-301.1 777.136-308.702 782.457-308.702Z" stroke="#000000" stroke-width="0.760162" transform="matrix(1.00072 0 0 1 -449.957 356.878)"/><path d="M1259.21-287.341C1259.21-279.784 1195.34-273.658 1116.55-273.658 1037.76-273.658 973.889-279.784 973.889-287.341 973.889-294.898 1037.76-301.024 1116.55-301.024 1195.34-301.024 1259.21-294.898 1259.21-287.341Z" stroke="#000000" stroke-width="0.760162" fill="#D3E6EF" transform="matrix(1.00072 0 0 1 -449.957 356.878)"/><text font-family="Arial,Arial_MSFontService,sans-serif" font-weight="400" font-size="14" transform="matrix(0.760707 0 0 0.760162 575.63 72)">precondition</text><text font-family="Arial,Arial_MSFontService,sans-serif" font-weight="400" font-size="14" transform="matrix(0.760707 0 0 0.760162 633.653 72)">: </text><text font-family="Arial,Arial_MSFontService,sans-serif" font-weight="400" font-size="14" transform="matrix(0.760707 0 0 0.760162 639.571 72)">is</text><text font-family="Arial,Arial_MSFontService,sans-serif" font-weight="400" font-size="14" transform="matrix(0.760707 0 0 0.760162 647.262 72)">_</text><text font-family="Arial,Arial_MSFontService,sans-serif" font-weight="400" font-size="14" transform="matrix(0.760707 0 0 0.760162 653.185 72)">inserted</text><text font-family="Arial,Arial_MSFontService,sans-serif" font-weight="400" font-size="14" transform="matrix(0.760707 0 0 0.760162 691.073 72)">(</text><text font-family="Arial,Arial_MSFontService,sans-serif" font-weight="400" font-size="14" transform="matrix(0.760707 0 0 0.760162 694.62 72)">shatf</text><text font-family="Arial,Arial_MSFontService,sans-serif" font-weight="400" font-size="14" transform="matrix(0.760707 0 0 0.760162 717.708 72)">3</text><text font-family="Arial,Arial_MSFontService,sans-serif" font-weight="400" font-size="14" transform="matrix(0.760707 0 0 0.760162 723.631 72)">, </text><text font-family="Arial,Arial_MSFontService,sans-serif" font-weight="400" font-size="14" transform="matrix(0.760707 0 0 0.760162 729.549 72)">hole</text><text font-family="Arial,Arial_MSFontService,sans-serif" font-weight="400" font-size="14" transform="matrix(0.760707 0 0 0.760162 749.684 72)">3</text><text font-family="Arial,Arial_MSFontService,sans-serif" font-weight="400" font-size="14" transform="matrix(0.760707 0 0 0.760162 755.607 72)">)</text><path d="M800.359-338.067C846.516-330.769 960.419-312.776 1038.13-300.492" stroke="#000000" stroke-width="0.760162" fill="none" transform="matrix(1.00072 0 0 1 -449.957 356.878)"/><path d="M1038.68-303.099 1045.77-299.283 1037.84-297.847 1038.68-303.099Z" stroke="#000000" stroke-width="0.760162" transform="matrix(1.00072 0 0 1 -449.957 356.878)"/><path d="M1305.07-301.024C1305.07-301.024 1282.26-301.024 1282.26-301.024 1277.7-301.024 1273.14-296.463 1273.14-291.902 1273.14-291.902 1273.14-282.78 1273.14-282.78 1273.14-278.219 1277.7-273.658 1282.26-273.658 1282.26-273.658 1305.07-273.658 1305.07-273.658 1309.63-273.658 1314.19-278.219 1314.19-282.78 1314.19-282.78 1314.19-291.902 1314.19-291.902 1314.19-296.463 1309.63-301.024 1305.07-301.024" stroke="#000000" stroke-width="0.760162" fill="#F4B183" transform="matrix(1.00072 0 0 1 -449.957 356.878)"/><text font-family="Arial,Arial_MSFontService,sans-serif" font-weight="400" font-size="14" transform="matrix(0.760707 0 0 0.760162 841.675 72)">?</text><path d="M800.58-339.161C881.134-330.822 1172.87-300.614 1265.34-291.036" stroke="#000000" stroke-width="0.760162" fill="none" transform="matrix(1.00072 0 0 1 -449.957 356.878)"/><path d="M1265.62-293.681 1272.91-290.253 1265.08-288.39 1265.62-293.681Z" stroke="#000000" stroke-width="0.760162" transform="matrix(1.00072 0 0 1 -449.957 356.878)"/><path d="M1342.83-232.609C1342.83-225.053 1283.38-218.927 1210.05-218.927 1136.72-218.927 1077.27-225.053 1077.27-232.609 1077.27-240.166 1136.72-246.292 1210.05-246.292 1283.38-246.292 1342.83-240.166 1342.83-232.609Z" stroke="#000000" stroke-width="0.760162" fill="#D3E6EF" transform="matrix(1.00072 0 0 1 -449.957 356.878)"/><text font-family="Arial,Arial_MSFontService,sans-serif" font-weight="400" font-size="14" transform="matrix(0.760707 0 0 0.760162 674.813 127)">target</text><text font-family="Arial,Arial_MSFontService,sans-serif" font-weight="400" font-size="14" transform="matrix(0.760707 0 0 0.760162 702.046 127)">: </text><text font-family="Arial,Arial_MSFontService,sans-serif" font-weight="400" font-size="14" transform="matrix(0.760707 0 0 0.760162 707.964 127)">is</text><text font-family="Arial,Arial_MSFontService,sans-serif" font-weight="400" font-size="14" transform="matrix(0.760707 0 0 0.760162 715.655 127)">_</text><text font-family="Arial,Arial_MSFontService,sans-serif" font-weight="400" font-size="14" transform="matrix(0.760707 0 0 0.760162 721.578 127)">engaged</text><text font-family="Arial,Arial_MSFontService,sans-serif" font-weight="400" font-size="14" transform="matrix(0.760707 0 0 0.760162 763.039 127)">_</text><text font-family="Arial,Arial_MSFontService,sans-serif" font-weight="400" font-size="14" transform="matrix(0.760707 0 0 0.760162 768.962 127)">to</text><text font-family="Arial,Arial_MSFontService,sans-serif" font-weight="400" font-size="14" transform="matrix(0.760707 0 0 0.760162 777.844 127)">(</text><text font-family="Arial,Arial_MSFontService,sans-serif" font-weight="400" font-size="14" transform="matrix(0.760707 0 0 0.760162 781.39 127)">gear</text><text font-family="Arial,Arial_MSFontService,sans-serif" font-weight="400" font-size="14" transform="matrix(0.760707 0 0 0.760162 802.705 127)">3</text><text font-family="Arial,Arial_MSFontService,sans-serif" font-weight="400" font-size="14" transform="matrix(0.760707 0 0 0.760162 808.628 127)">, </text><text font-family="Arial,Arial_MSFontService,sans-serif" font-weight="400" font-size="14" transform="matrix(0.760707 0 0 0.760162 814.546 127)">shaft</text><text font-family="Arial,Arial_MSFontService,sans-serif" font-weight="400" font-size="14" transform="matrix(0.760707 0 0 0.760162 837.635 127)">3</text><text font-family="Arial,Arial_MSFontService,sans-serif" font-weight="400" font-size="14" transform="matrix(0.760707 0 0 0.760162 843.558 127)">)</text><path d="M1273.21-273.567C1262.3-266.619 1248.73-257.984 1236.97-250.504" stroke="#000000" stroke-width="0.760162" fill="none" transform="matrix(1.00072 0 0 1 -449.957 356.878)"/><path d="M1238.14-248.086 1230.29-246.254 1235.28-252.579 1238.14-248.086Z" stroke="#000000" stroke-width="0.760162" transform="matrix(1.00072 0 0 1 -449.957 356.878)"/><path d="M1388.69-246.292C1388.69-246.292 1365.88-246.292 1365.88-246.292 1361.32-246.292 1356.76-241.731 1356.76-237.17 1356.76-237.17 1356.76-228.049 1356.76-228.049 1356.76-223.488 1361.32-218.927 1365.88-218.927 1365.88-218.927 1388.69-218.927 1388.69-218.927 1393.25-218.927 1397.81-223.488 1397.81-228.049 1397.81-228.049 1397.81-237.17 1397.81-237.17 1397.81-241.731 1393.25-246.292 1388.69-246.292" stroke="#000000" stroke-width="0.760162" fill="#94B5D7" transform="matrix(1.00072 0 0 1 -449.957 356.878)"/><text font-family="Arial,Arial_MSFontService,sans-serif" font-weight="400" font-size="14" transform="matrix(0.760707 0 0 0.760162 922.989 127)">→</text><path d="M1314.12-273.567C1324.95-266.672 1338.4-258.113 1350.1-250.671" stroke="#000000" stroke-width="0.760162" fill="none" transform="matrix(1.00072 0 0 1 -449.957 356.878)"/><path d="M1351.77-252.761 1356.75-246.437 1348.91-248.276 1351.77-252.761Z" stroke="#000000" stroke-width="0.760162" transform="matrix(1.00072 0 0 1 -449.957 356.878)"/><path d="M1216.13-191.561C1216.13-191.561 1193.32-191.561 1193.32-191.561 1188.76-191.561 1184.2-187 1184.2-182.439 1184.2-182.439 1184.2-173.317 1184.2-173.317 1184.2-168.756 1188.76-164.195 1193.32-164.195 1193.32-164.195 1216.13-164.195 1216.13-164.195 1220.69-164.195 1225.25-168.756 1225.25-173.317 1225.25-173.317 1225.25-182.439 1225.25-182.439 1225.25-187 1220.69-191.561 1216.13-191.561" stroke="#000000" stroke-width="0.760162" fill="#F4B183" transform="matrix(1.00072 0 0 1 -449.957 356.878)"/><text font-family="Arial,Arial_MSFontService,sans-serif" font-weight="400" font-size="14" transform="matrix(0.760707 0 0 0.760162 752.672 182)">?</text><path d="M1356.47-225.434C1325.55-215.894 1267.43-197.969 1232.78-187.289" stroke="#000000" stroke-width="0.760162" fill="none" transform="matrix(1.00072 0 0 1 -449.957 356.878)"/><path d="M1233.4-184.697 1225.35-184.993 1231.83-189.782 1233.4-184.697Z" stroke="#000000" stroke-width="0.760162" transform="matrix(1.00072 0 0 1 -449.957 356.878)"/><path d="M1361.32-191.561C1361.32-191.561 1338.52-191.561 1338.52-191.561 1333.95-191.561 1329.39-187 1329.39-182.439 1329.39-182.439 1329.39-173.317 1329.39-173.317 1329.39-168.756 1333.95-164.195 1338.52-164.195 1338.52-164.195 1361.32-164.195 1361.32-164.195 1365.88-164.195 1370.44-168.756 1370.44-173.317 1370.44-173.317 1370.44-182.439 1370.44-182.439 1370.44-187 1365.88-191.561 1361.32-191.561" stroke="#000000" stroke-width="0.760162" fill="#F4B183" transform="matrix(1.00072 0 0 1 -449.957 356.878)"/><text font-family="Arial,Arial_MSFontService,sans-serif" font-weight="400" font-size="14" transform="matrix(0.760707 0 0 0.760162 897.967 182)">?</text><path d="M1370.52-218.699C1367.41-212.64 1363.64-205.32 1360.19-198.6" stroke="#000000" stroke-width="0.760162" fill="none" transform="matrix(1.00072 0 0 1 -449.957 356.878)"/><path d="M1362.45-197.186 1356.61-191.637 1357.72-199.618 1362.45-197.186Z" stroke="#000000" stroke-width="0.760162" transform="matrix(1.00072 0 0 1 -449.957 356.878)"/><text font-family="Arial,Arial_MSFontService,sans-serif" font-weight="400" font-size="25" transform="matrix(0.760707 0 0 0.760162 947.774 184)">...</text><path d="M1715.56-191.561C1715.56-191.561 1447.98-191.561 1447.98-191.561 1443.42-191.561 1438.86-187 1438.86-182.439 1438.86-182.439 1438.86-173.317 1438.86-173.317 1438.86-168.756 1443.42-164.195 1447.98-164.195 1447.98-164.195 1715.56-164.195 1715.56-164.195 1720.12-164.195 1724.68-168.756 1724.68-173.317 1724.68-173.317 1724.68-182.439 1724.68-182.439 1724.68-187 1720.12-191.561 1715.56-191.561" stroke="#000000" stroke-width="0.760162" fill="#FFEFBE" transform="matrix(1.00072 0 0 1 -449.957 356.878)"/><text font-family="Arial,Arial_MSFontService,sans-serif" font-weight="400" font-size="14" transform="matrix(0.760707 0 0 0.760162 1013.05 182)">action</text><text font-family="Arial,Arial_MSFontService,sans-serif" font-weight="400" font-size="14" transform="matrix(0.760707 0 0 0.760162 1041.47 182)">: </text><text font-family="Arial,Arial_MSFontService,sans-serif" font-weight="400" font-size="14" transform="matrix(0.760707 0 0 0.760162 1047.39 182)">engage</text><text font-family="Arial,Arial_MSFontService,sans-serif" font-weight="400" font-size="14" transform="matrix(0.760707 0 0 0.760162 1082.92 182)">(</text><text font-family="Arial,Arial_MSFontService,sans-serif" font-weight="400" font-size="14" transform="matrix(0.760707 0 0 0.760162 1086.47 182)">hand</text><text font-family="Arial,Arial_MSFontService,sans-serif" font-weight="400" font-size="14" transform="matrix(0.760707 0 0 0.760162 1110.16 182)">, </text><text font-family="Arial,Arial_MSFontService,sans-serif" font-weight="400" font-size="14" transform="matrix(0.760707 0 0 0.760162 1116.08 182)">defaultgripper</text><text font-family="Arial,Arial_MSFontService,sans-serif" font-weight="400" font-size="14" transform="matrix(0.760707 0 0 0.760162 1181.21 182)">, </text><text font-family="Arial,Arial_MSFontService,sans-serif" font-weight="400" font-size="14" transform="matrix(0.760707 0 0 0.760162 1187.12 182)">gear</text><text font-family="Arial,Arial_MSFontService,sans-serif" font-weight="400" font-size="14" transform="matrix(0.760707 0 0 0.760162 1208.44 182)">3</text><text font-family="Arial,Arial_MSFontService,sans-serif" font-weight="400" font-size="14" transform="matrix(0.760707 0 0 0.760162 1214.36 182)">, </text><text font-family="Arial,Arial_MSFontService,sans-serif" font-weight="400" font-size="14" transform="matrix(0.760707 0 0 0.760162 1220.28 182)">shaft</text><text font-family="Arial,Arial_MSFontService,sans-serif" font-weight="400" font-size="14" transform="matrix(0.760707 0 0 0.760162 1243.37 182)">3</text><text font-family="Arial,Arial_MSFontService,sans-serif" font-weight="400" font-size="14" transform="matrix(0.760707 0 0 0.760162 1249.29 182)">)</text><path d="M1397.83-226.505C1427.21-218.858 1482.34-204.514 1524.62-193.514" stroke="#000000" stroke-width="0.760162" fill="none" transform="matrix(1.00072 0 0 1 -449.957 356.878)"/><path d="M1525.39-196.053 1532.08-191.568 1524.06-190.907 1525.39-196.053Z" stroke="#000000" stroke-width="0.760162" transform="matrix(1.00072 0 0 1 -449.957 356.878)"/><path d="M1170.57-123.146C1170.57-115.589 1113.71-109.463 1043.57-109.463 973.433-109.463 916.573-115.589 916.573-123.146 916.573-130.703 973.433-136.829 1043.57-136.829 1113.71-136.829 1170.57-130.703 1170.57-123.146Z" stroke="#000000" stroke-width="0.760162" fill="#D3E6EF" transform="matrix(1.00072 0 0 1 -449.957 356.878)"/><text font-family="Arial,Arial_MSFontService,sans-serif" font-weight="400" font-size="14" transform="matrix(0.760707 0 0 0.760162 515.033 237)">target</text><text font-family="Arial,Arial_MSFontService,sans-serif" font-weight="400" font-size="14" transform="matrix(0.760707 0 0 0.760162 542.266 237)">: </text><text font-family="Arial,Arial_MSFontService,sans-serif" font-weight="400" font-size="14" transform="matrix(0.760707 0 0 0.760162 548.184 237)">hold</text><text font-family="Arial,Arial_MSFontService,sans-serif" font-weight="400" font-size="14" transform="matrix(0.760707 0 0 0.760162 568.319 237)">(</text><text font-family="Arial,Arial_MSFontService,sans-serif" font-weight="400" font-size="14" transform="matrix(0.760707 0 0 0.760162 571.865 237)">defaultgripper</text><text font-family="Arial,Arial_MSFontService,sans-serif" font-weight="400" font-size="14" transform="matrix(0.760707 0 0 0.760162 636.992 237)">, </text><text font-family="Arial,Arial_MSFontService,sans-serif" font-weight="400" font-size="14" transform="matrix(0.760707 0 0 0.760162 642.91 237)">gear</text><text font-family="Arial,Arial_MSFontService,sans-serif" font-weight="400" font-size="14" transform="matrix(0.760707 0 0 0.760162 664.225 237)">3</text><text font-family="Arial,Arial_MSFontService,sans-serif" font-weight="400" font-size="14" transform="matrix(0.760707 0 0 0.760162 670.148 237)">)</text><path d="M1183.99-170.269C1159.98-162.348 1119.76-149.06 1088.49-138.737" stroke="#000000" stroke-width="0.760162" fill="none" transform="matrix(1.00072 0 0 1 -449.957 356.878)"/><path d="M1089.21-136.175 1081.16-136.312 1087.54-141.223 1089.21-136.175Z" stroke="#000000" stroke-width="0.760162" transform="matrix(1.00072 0 0 1 -449.957 356.878)"/><path d="M1216.13-136.829C1216.13-136.829 1193.32-136.829 1193.32-136.829 1188.76-136.829 1184.2-132.268 1184.2-127.707 1184.2-127.707 1184.2-118.585 1184.2-118.585 1184.2-114.024 1188.76-109.463 1193.32-109.463 1193.32-109.463 1216.13-109.463 1216.13-109.463 1220.69-109.463 1225.25-114.024 1225.25-118.585 1225.25-118.585 1225.25-127.707 1225.25-127.707 1225.25-132.268 1220.69-136.829 1216.13-136.829" stroke="#000000" stroke-width="0.760162" fill="#94B5D7" transform="matrix(1.00072 0 0 1 -449.957 356.878)"/><text font-family="Arial,Arial_MSFontService,sans-serif" font-weight="400" font-size="14" transform="matrix(0.760707 0 0 0.760162 750.309 237)">→</text><path d="M1204.73-163.967C1204.73-158.098 1204.73-151.052 1204.73-144.514" stroke="#000000" stroke-width="0.760162" fill="none" transform="matrix(1.00072 0 0 1 -449.957 356.878)"/><path d="M1207.39-144.507 1204.73-136.905 1202.07-144.507 1207.39-144.507Z" stroke="#000000" stroke-width="0.760162" transform="matrix(1.00072 0 0 1 -449.957 356.878)"/><path d="M1161.4-82.0975C1161.4-82.0975 1138.59-82.0975 1138.59-82.0975 1134.03-82.0975 1129.47-77.5365 1129.47-72.9755 1129.47-72.9755 1129.47-63.8536 1129.47-63.8536 1129.47-59.2926 1134.03-54.7316 1138.59-54.7316 1138.59-54.7316 1161.4-54.7316 1161.4-54.7316 1165.96-54.7316 1170.52-59.2926 1170.52-63.8536 1170.52-63.8536 1170.52-72.9755 1170.52-72.9755 1170.52-77.5365 1165.96-82.0975 1161.4-82.0975" stroke="#000000" stroke-width="0.760162" fill="#F4B183" transform="matrix(1.00072 0 0 1 -449.957 356.878)"/><text font-family="Arial,Arial_MSFontService,sans-serif" font-weight="400" font-size="14" transform="matrix(0.760707 0 0 0.760162 697.901 291)">?</text><path d="M1191.2-109.235C1184.51-102.728 1176.31-94.7618 1169-87.6467" stroke="#000000" stroke-width="0.760162" fill="none" transform="matrix(1.00072 0 0 1 -449.957 356.878)"/><path d="M1170.68-85.5714 1163.37-82.1735 1166.97-89.3798 1170.68-85.5714Z" stroke="#000000" stroke-width="0.760162" transform="matrix(1.00072 0 0 1 -449.957 356.878)"/><text font-family="Arial,Arial_MSFontService,sans-serif" font-weight="400" font-size="25" transform="matrix(0.760707 0 0 0.760162 747.708 293)">...</text><path d="M1476.48-82.0975C1476.48-82.0975 1247.68-82.0975 1247.68-82.0975 1243.12-82.0975 1238.55-77.5365 1238.55-72.9755 1238.55-72.9755 1238.55-63.8536 1238.55-63.8536 1238.55-59.2926 1243.12-54.7316 1247.68-54.7316 1247.68-54.7316 1476.48-54.7316 1476.48-54.7316 1481.05-54.7316 1485.61-59.2926 1485.61-63.8536 1485.61-63.8536 1485.61-72.9755 1485.61-72.9755 1485.61-77.5365 1481.05-82.0975 1476.48-82.0975" stroke="#000000" stroke-width="0.760162" fill="#FFEFBE" transform="matrix(1.00072 0 0 1 -449.957 356.878)"/><text font-family="Arial,Arial_MSFontService,sans-serif" font-weight="400" font-size="14" transform="matrix(0.760707 0 0 0.760162 810.085 291)">action</text><text font-family="Arial,Arial_MSFontService,sans-serif" font-weight="400" font-size="14" transform="matrix(0.760707 0 0 0.760162 838.504 291)">: </text><text font-family="Arial,Arial_MSFontService,sans-serif" font-weight="400" font-size="14" transform="matrix(0.760707 0 0 0.760162 844.422 291)">pick</text><text font-family="Arial,Arial_MSFontService,sans-serif" font-weight="400" font-size="14" transform="matrix(0.760707 0 0 0.760162 863.361 291)">_</text><text font-family="Arial,Arial_MSFontService,sans-serif" font-weight="400" font-size="14" transform="matrix(0.760707 0 0 0.760162 869.284 291)">up</text><text font-family="Arial,Arial_MSFontService,sans-serif" font-weight="400" font-size="14" transform="matrix(0.760707 0 0 0.760162 881.13 291)">(</text><text font-family="Arial,Arial_MSFontService,sans-serif" font-weight="400" font-size="14" transform="matrix(0.760707 0 0 0.760162 884.676 291)">hand</text><text font-family="Arial,Arial_MSFontService,sans-serif" font-weight="400" font-size="14" transform="matrix(0.760707 0 0 0.760162 908.368 291)">, </text><text font-family="Arial,Arial_MSFontService,sans-serif" font-weight="400" font-size="14" transform="matrix(0.760707 0 0 0.760162 914.286 291)">defaultgripper</text><text font-family="Arial,Arial_MSFontService,sans-serif" font-weight="400" font-size="14" transform="matrix(0.760707 0 0 0.760162 979.412 291)">, </text><text font-family="Arial,Arial_MSFontService,sans-serif" font-weight="400" font-size="14" transform="matrix(0.760707 0 0 0.760162 985.33 291)">gear</text><text font-family="Arial,Arial_MSFontService,sans-serif" font-weight="400" font-size="14" transform="matrix(0.760707 0 0 0.760162 1006.65 291)">3</text><text font-family="Arial,Arial_MSFontService,sans-serif" font-weight="400" font-size="14" transform="matrix(0.760707 0 0 0.760162 1012.57 291)">)</text><path d="M1225.3-115.431C1248.31-107.647 1286.31-94.7998 1316.42-84.6136" stroke="#000000" stroke-width="0.760162" fill="none" transform="matrix(1.00072 0 0 1 -449.957 356.878)"/><path d="M1317.35-87.1145 1323.69-82.1583 1315.64-82.0747 1317.35-87.1145Z" stroke="#000000" stroke-width="0.760162" transform="matrix(1.00072 0 0 1 -449.957 356.878)"/><path d="M1156.66-13.6829C1156.66-6.12605 1107.73 2.70064e-15 1047.37 2.70064e-15 987.015 5.40127e-15 938.085-6.12605 938.085-13.6829 938.085-21.2398 987.015-27.3658 1047.37-27.3658 1107.73-27.3658 1156.66-21.2398 1156.66-13.6829Z" stroke="#000000" stroke-width="0.760162" fill="#D3E6EF" transform="matrix(1.00072 0 0 1 -449.957 356.878)"/><text font-family="Arial,Arial_MSFontService,sans-serif" font-weight="400" font-size="14" transform="matrix(0.760707 0 0 0.760162 527.719 346)">target</text><text font-family="Arial,Arial_MSFontService,sans-serif" font-weight="400" font-size="14" transform="matrix(0.760707 0 0 0.760162 554.952 346)">: </text><text font-family="Arial,Arial_MSFontService,sans-serif" font-weight="400" font-size="14" transform="matrix(0.760707 0 0 0.760162 560.869 346)">pose</text><text font-family="Arial,Arial_MSFontService,sans-serif" font-weight="400" font-size="14" transform="matrix(0.760707 0 0 0.760162 583.963 346)">_</text><text font-family="Arial,Arial_MSFontService,sans-serif" font-weight="400" font-size="14" transform="matrix(0.760707 0 0 0.760162 589.886 346)">is</text><text font-family="Arial,Arial_MSFontService,sans-serif" font-weight="400" font-size="14" transform="matrix(0.760707 0 0 0.760162 597.577 346)">_</text><text font-family="Arial,Arial_MSFontService,sans-serif" font-weight="400" font-size="14" transform="matrix(0.760707 0 0 0.760162 603.5 346)">known</text><text font-family="Arial,Arial_MSFontService,sans-serif" font-weight="400" font-size="14" transform="matrix(0.760707 0 0 0.760162 634.285 346)">(</text><text font-family="Arial,Arial_MSFontService,sans-serif" font-weight="400" font-size="14" transform="matrix(0.760707 0 0 0.760162 637.832 346)">gear</text><text font-family="Arial,Arial_MSFontService,sans-serif" font-weight="400" font-size="14" transform="matrix(0.760707 0 0 0.760162 659.147 346)">3</text><text font-family="Arial,Arial_MSFontService,sans-serif" font-weight="400" font-size="14" transform="matrix(0.760707 0 0 0.760162 665.07 346)">)</text><path d="M1129.23-56.8829C1114.68-49.3421 1094.97-39.1179 1078.54-30.6041" stroke="#000000" stroke-width="0.760162" fill="none" transform="matrix(1.00072 0 0 1 -449.957 356.878)"/><path d="M1079.7-28.202 1071.72-27.0694 1077.24-32.9302 1079.7-28.202Z" stroke="#000000" stroke-width="0.760162" transform="matrix(1.00072 0 0 1 -449.957 356.878)"/><path d="M1327.11-27.3658C1327.11-27.3658 1179.64-27.3658 1179.64-27.3658 1175.08-27.3658 1170.52-22.8049 1170.52-18.2439 1170.52-18.2439 1170.52-9.12194 1170.52-9.12194 1170.52-4.56097 1175.08 0 1179.64 0 1179.64 0 1327.11 0 1327.11 0 1331.67 0 1336.24-4.56097 1336.24-9.12194 1336.24-9.12194 1336.24-18.2439 1336.24-18.2439 1336.24-22.8049 1331.67-27.3658 1327.11-27.3658" stroke="#000000" stroke-width="0.760162" fill="#FFEFBE" transform="matrix(1.00072 0 0 1 -449.957 356.878)"/><text font-family="Arial,Arial_MSFontService,sans-serif" font-weight="400" font-size="14" transform="matrix(0.760707 0 0 0.760162 735.352 346)">action</text><text font-family="Arial,Arial_MSFontService,sans-serif" font-weight="400" font-size="14" transform="matrix(0.760707 0 0 0.760162 763.771 346)">: </text><text font-family="Arial,Arial_MSFontService,sans-serif" font-weight="400" font-size="14" transform="matrix(0.760707 0 0 0.760162 769.689 346)">estimate</text><text font-family="Arial,Arial_MSFontService,sans-serif" font-weight="400" font-size="14" transform="matrix(0.760707 0 0 0.760162 809.938 346)">_</text><text font-family="Arial,Arial_MSFontService,sans-serif" font-weight="400" font-size="14" transform="matrix(0.760707 0 0 0.760162 815.861 346)">pose</text><text font-family="Arial,Arial_MSFontService,sans-serif" font-weight="400" font-size="14" transform="matrix(0.760707 0 0 0.760162 838.955 346)">(</text><text font-family="Arial,Arial_MSFontService,sans-serif" font-weight="400" font-size="14" transform="matrix(0.760707 0 0 0.760162 842.501 346)">gear</text><text font-family="Arial,Arial_MSFontService,sans-serif" font-weight="400" font-size="14" transform="matrix(0.760707 0 0 0.760162 863.816 346)">3</text><text font-family="Arial,Arial_MSFontService,sans-serif" font-weight="400" font-size="14" transform="matrix(0.760707 0 0 0.760162 869.739 346)">)</text><path d="M1170.67-57.0121C1185.11-49.5854 1204.67-39.5132 1221.14-31.0374" stroke="#000000" stroke-width="0.760162" fill="none" transform="matrix(1.00072 0 0 1 -449.957 356.878)"/><path d="M1222.45-33.3559 1227.99-27.5103 1220.01-28.6277 1222.45-33.3559Z" stroke="#000000" stroke-width="0.760162" transform="matrix(1.00072 0 0 1 -449.957 356.878)"/><path d="M1460.65-123.146C1460.65-115.589 1411.07-109.463 1349.92-109.463 1288.76-109.463 1239.19-115.589 1239.19-123.146 1239.19-130.703 1288.76-136.829 1349.92-136.829 1411.07-136.829 1460.65-130.703 1460.65-123.146Z" stroke="#000000" stroke-width="0.760162" fill="#D3E6EF" transform="matrix(1.00072 0 0 1 -449.957 356.878)"/><text font-family="Arial,Arial_MSFontService,sans-serif" font-weight="400" font-size="14" transform="matrix(0.760707 0 0 0.760162 829.593 237)">target</text><text font-family="Arial,Arial_MSFontService,sans-serif" font-weight="400" font-size="14" transform="matrix(0.760707 0 0 0.760162 856.826 237)">: </text><text font-family="Arial,Arial_MSFontService,sans-serif" font-weight="400" font-size="14" transform="matrix(0.760707 0 0 0.760162 862.744 237)">pose</text><text font-family="Arial,Arial_MSFontService,sans-serif" font-weight="400" font-size="14" transform="matrix(0.760707 0 0 0.760162 885.838 237)">_</text><text font-family="Arial,Arial_MSFontService,sans-serif" font-weight="400" font-size="14" transform="matrix(0.760707 0 0 0.760162 891.761 237)">is</text><text font-family="Arial,Arial_MSFontService,sans-serif" font-weight="400" font-size="14" transform="matrix(0.760707 0 0 0.760162 899.452 237)">_</text><text font-family="Arial,Arial_MSFontService,sans-serif" font-weight="400" font-size="14" transform="matrix(0.760707 0 0 0.760162 905.375 237)">known</text><text font-family="Arial,Arial_MSFontService,sans-serif" font-weight="400" font-size="14" transform="matrix(0.760707 0 0 0.760162 936.16 237)">(</text><text font-family="Arial,Arial_MSFontService,sans-serif" font-weight="400" font-size="14" transform="matrix(0.760707 0 0 0.760162 939.706 237)">shaft</text><text font-family="Arial,Arial_MSFontService,sans-serif" font-weight="400" font-size="14" transform="matrix(0.760707 0 0 0.760162 962.795 237)">3</text><text font-family="Arial,Arial_MSFontService,sans-serif" font-weight="400" font-size="14" transform="matrix(0.760707 0 0 0.760162 968.718 237)">)</text><path d="M1349.92-163.967C1349.92-158.098 1349.92-151.052 1349.92-144.514" stroke="#000000" stroke-width="0.760162" fill="none" transform="matrix(1.00072 0 0 1 -449.957 356.878)"/><path d="M1352.58-144.507 1349.92-136.905 1347.26-144.507 1352.58-144.507Z" stroke="#000000" stroke-width="0.760162" transform="matrix(1.00072 0 0 1 -449.957 356.878)"/><path d="M1633.08-136.829C1633.08-136.829 1483.33-136.829 1483.33-136.829 1478.77-136.829 1474.2-132.268 1474.2-127.707 1474.2-127.707 1474.2-118.585 1474.2-118.585 1474.2-114.024 1478.77-109.463 1483.33-109.463 1483.33-109.463 1633.08-109.463 1633.08-109.463 1637.64-109.463 1642.2-114.024 1642.2-118.585 1642.2-118.585 1642.2-127.707 1642.2-127.707 1642.2-132.268 1637.64-136.829 1633.08-136.829" stroke="#000000" stroke-width="0.760162" fill="#FFEFBE" transform="matrix(1.00072 0 0 1 -449.957 356.878)"/><text font-family="Arial,Arial_MSFontService,sans-serif" font-weight="400" font-size="14" transform="matrix(0.760707 0 0 0.760162 1039.51 237)">action</text><text font-family="Arial,Arial_MSFontService,sans-serif" font-weight="400" font-size="14" transform="matrix(0.760707 0 0 0.760162 1067.93 237)">: </text><text font-family="Arial,Arial_MSFontService,sans-serif" font-weight="400" font-size="14" transform="matrix(0.760707 0 0 0.760162 1073.85 237)">estimate</text><text font-family="Arial,Arial_MSFontService,sans-serif" font-weight="400" font-size="14" transform="matrix(0.760707 0 0 0.760162 1114.09 237)">_</text><text font-family="Arial,Arial_MSFontService,sans-serif" font-weight="400" font-size="14" transform="matrix(0.760707 0 0 0.760162 1120.02 237)">pose</text><text font-family="Arial,Arial_MSFontService,sans-serif" font-weight="400" font-size="14" transform="matrix(0.760707 0 0 0.760162 1143.11 237)">(</text><text font-family="Arial,Arial_MSFontService,sans-serif" font-weight="400" font-size="14" transform="matrix(0.760707 0 0 0.760162 1146.66 237)">shaft</text><text font-family="Arial,Arial_MSFontService,sans-serif" font-weight="400" font-size="14" transform="matrix(0.760707 0 0 0.760162 1169.75 237)">3</text><text font-family="Arial,Arial_MSFontService,sans-serif" font-weight="400" font-size="14" transform="matrix(0.760707 0 0 0.760162 1175.67 237)">)</text><path d="M1370.66-171.819C1400.5-164.195 1456.73-149.828 1499.87-138.813" stroke="#000000" stroke-width="0.760162" fill="none" transform="matrix(1.00072 0 0 1 -449.957 356.878)"/><path d="M1500.78-141.322 1507.48-136.86 1499.46-136.168 1500.78-141.322Z" stroke="#000000" stroke-width="0.760162" transform="matrix(1.00072 0 0 1 -449.957 356.878)"/></g></svg>